<svg version="1.1" xmlns="http://www.w3.org/2000/svg" xmlns:xlink="http://www.w3.org/1999/xlink" width="114" height="30"><defs/><g><path fill="rgb(187,156,102)" stroke="none" paint-order="stroke fill markers" fill-rule="evenodd" d=" M 111.71838665008545 20.75816535949707 C 111.54255294799805 20.74104881286621 111.38030910491943 20.838857650756836 111.23105907440186 21.053120136260986 C 111.08145141601562 21.26707696914673 110.96295738220215 21.437325477600098 110.87533855438232 21.562031745910645 C 110.41840934753418 22.18709135055542 109.96624851226807 22.82987880706787 109.51861763000488 23.490394115447998 C 109.0705099105835 24.151215076446533 108.57376480102539 24.768022060394287 108.02969360351562 25.339592456817627 C 107.90655040740967 25.463993072509766 107.77005577087402 25.60245370864868 107.62128257751465 25.75436305999756 C 107.47155570983887 25.906578063964844 107.30883502960205 26.04014825820923 107.1338357925415 26.155990600585938 C 106.957763671875 26.272138595581055 106.77787685394287 26.361694812774658 106.59346008300781 26.42404794692993 C 106.40904331207275 26.486706733703613 106.22021579742432 26.490985870361328 106.02685832977295 26.437191009521484 C 105.83350086212158 26.384313106536865 105.73253059387207 26.240962028503418 105.72394752502441 26.008666038513184 C 105.71488761901855 25.776981353759766 105.74600124359131 25.518093585968018 105.81621551513672 25.23200273513794 C 105.88619136810303 24.94621753692627 105.97452545166016 24.67388105392456 106.07966804504395 24.414993286132812 C 106.18504905700684 24.156105518341064 106.2643232345581 23.98157787322998 106.3166561126709 23.892327308654785 C 106.45732307434082 23.571086406707764 106.61062622070312 23.249539852142334 106.77787685394287 22.927993297576904 C 106.94465065002441 22.60705804824829 107.12453746795654 22.284900188446045 107.31825256347656 21.963659286499023 C 107.93277645111084 20.892041206359863 108.62657451629639 19.82959270477295 109.40000438690186 18.776008129119873 C 109.59300422668457 18.52628993988037 109.78600406646729 18.280545234680176 109.9797191619873 18.039385318756104 C 110.17271900177002 17.797919750213623 110.37465953826904 17.553092002868652 110.58554077148438 17.302762508392334 C 110.72585010528564 17.123650074005127 110.9015645980835 16.922836303710938 111.11256504058838 16.700015544891357 C 111.32344627380371 16.47688913345337 111.43752956390381 16.24031400680542 111.45517253875732 15.989984512329102 C 111.47233867645264 15.739960670471191 111.39342212677002 15.579798698425293 111.21806526184082 15.507970333099365 C 111.04223155975342 15.436753273010254 110.85781478881836 15.4272780418396 110.66445732116699 15.480461597442627 C 109.99688529968262 15.677913188934326 109.3378963470459 15.811177730560303 108.68820571899414 15.883311748504639 C 108.1855001449585 15.938023567199707 107.69376182556152 15.847856044769287 107.21239471435547 15.614948749542236 C 106.76059150695801 15.36431360244751 106.37876415252686 14.771958827972412 105.89143657684326 15.486574649810791 C 105.80989742279053 15.584077835083008 105.73205375671387 15.697474956512451 105.65814399719238 15.828905582427979 C 105.5605115890503 15.993041038513184 105.43367290496826 16.395585536956787 105.31255626678467 16.853453159332275 C 105.31207942962646 16.855287075042725 105.31136417388916 16.857120990753174 105.31064891815186 16.85926055908203 C 104.50658226013184 19.441108226776123 98.93390560150146 26.892613410949707 96.4359941482544 26.892613410949707 C 95.92887783050537 26.892613410949707 95.55599117279053 26.703720092773438 95.28073692321777 26.406320095062256 C 95.21481418609619 26.32562780380249 95.15354061126709 26.240962028503418 95.10526084899902 26.14223623275757 C 94.99081993103027 25.911162853240967 94.92942714691162 25.655942916870117 94.92084407806396 25.379327297210693 C 94.91142654418945 25.103017330169678 94.95112323760986 24.821511268615723 95.03945732116699 24.535726070404053 C 95.1620044708252 24.089167594909668 95.3157844543457 23.727580547332764 95.50055885314941 23.450353622436523 C 95.68497562408447 23.1737380027771 95.89967155456543 22.94602680206299 96.1460771560669 22.767525672912598 C 96.39176750183105 22.589024543762207 96.67715454101562 22.437726497650146 97.0022382736206 22.311797618865967 C 97.32720279693604 22.18709135055542 97.69150638580322 22.04404592514038 98.09574508666992 21.882966995239258 C 98.44693565368652 21.740838527679443 98.85093593597412 21.562031745910645 99.30786514282227 21.347463607788086 C 99.76455593109131 21.133201122283936 100.21707439422607 20.878592491149902 100.66482448577881 20.583943367004395 C 101.11281299591064 20.289599895477295 101.5343370437622 19.968053340911865 101.9296350479126 19.619915008544922 C 102.32505226135254 19.27147102355957 102.64143371582031 18.896435260772705 102.87854099273682 18.49419641494751 C 103.11564826965332 18.093180179595947 103.25142765045166 17.66404390335083 103.2869520187378 17.208621501922607 C 103.32164192199707 16.753504753112793 103.20767784118652 16.28463363647461 102.9442253112793 15.802313804626465 C 102.69781970977783 15.338027477264404 102.16233158111572 15.150662422180176 101.33692646026611 15.239912986755371 C 100.58137798309326 15.329469203948975 99.838942527771 15.529977321624756 99.11045455932617 15.842659950256348 C 98.38113212585449 16.15503692626953 97.70938777923584 16.53435182571411 97.09462547302246 16.980910301208496 C 96.09338665008545 17.695526123046875 95.23686790466309 18.531180381774902 94.52554607391357 19.48573350906372 C 93.84450340270996 20.400246143341064 93.27599430084229 21.38567018508911 92.81227016448975 22.438337802886963 C 92.63834381103516 22.682554244995117 92.45988750457764 22.919129371643066 92.27260971069336 23.142255783081055 C 91.97375202178955 23.499869346618652 91.67036437988281 23.834558963775635 91.36340045928955 24.147241592407227 C 91.05595970153809 24.459312915802002 90.7529296875 24.776580333709717 90.45419120788574 25.098126888275146 C 90.15533351898193 25.401334285736084 89.85695266723633 25.700262546539307 89.55845260620117 25.99552297592163 C 89.25959491729736 26.289560794830322 88.90840435028076 26.508713722229004 88.50440406799316 26.65206480026245 C 88.36349868774414 26.687214851379395 88.2277193069458 26.69638442993164 88.09599304199219 26.678350925445557 C 87.96450519561768 26.66062307357788 87.89822483062744 26.562814235687256 87.89822483062744 26.384313106536865 C 87.91586780548096 26.169744968414307 87.9685583114624 25.955176830291748 88.05641555786133 25.74060869216919 C 88.19708251953125 25.348150730133057 88.35491561889648 24.968835830688477 88.53063011169434 24.602052688598633 C 88.70610618591309 24.23679780960083 88.8998212814331 23.875210762023926 89.11034488677979 23.517597198486328 C 89.61984539031982 22.60705804824829 90.12064361572266 21.691628456115723 90.61226272583008 20.77161407470703 C 91.1041202545166 19.85159969329834 91.6311445236206 18.936781406402588 92.19333553314209 18.025630950927734 C 92.75540733337402 17.13312530517578 93.29542541503906 16.235729217529297 93.81386661529541 15.33374834060669 C 94.33183097839355 14.432378768920898 94.83703994750977 13.508085250854492 95.32889747619629 12.561173439025879 C 95.6277551651001 12.025670051574707 95.9261360168457 11.48924970626831 96.22499370574951 10.953746318817139 C 96.52349376678467 10.418242931365967 96.8484582901001 9.90046739578247 97.20000648498535 9.400114059448242 C 97.35783958435059 9.185545921325684 97.51603031158447 8.962725162506104 97.67422103881836 8.730123519897461 C 97.83241176605225 8.498438835144043 97.9771318435669 8.252694129943848 98.10885810852051 7.993195056915283 C 98.24082279205322 7.734918594360352 98.34155464172363 7.4714460372924805 98.4121265411377 7.203083038330078 C 98.482102394104 6.9356369972229 98.49104309082031 6.667273998260498 98.43835258483887 6.399522304534912 C 98.3680191040039 6.024486541748047 98.20982837677002 5.8462910652160645 97.96413803100586 5.86401891708374 C 97.71809005737305 5.882052421569824 97.46333980560303 5.917202472686768 97.20000648498535 5.9713029861450195 C 97.04181575775146 6.007064342498779 96.86598205566406 6.015928268432617 96.6731014251709 5.998200416564941 C 96.47938632965088 5.980472564697266 96.28185653686523 5.975887775421143 96.07991600036621 5.984446048736572 C 95.87797546386719 5.993921279907227 95.68914794921875 6.020818710327148 95.513671875 6.06483268737793 C 95.3378381729126 6.1097636222839355 95.18834972381592 6.2029876708984375 95.06556415557861 6.346338748931885 C 94.97734928131104 6.453317165374756 94.93801021575928 6.582913875579834 94.94707012176514 6.734823226928711 C 94.9556531906128 6.886732578277588 94.95112323760986 7.025498867034912 94.93395709991455 7.149593830108643 C 94.89843273162842 7.32870626449585 94.85873603820801 7.493758678436279 94.81546306610107 7.645362377166748 C 94.77123641967773 7.797271728515625 94.71401596069336 7.944901943206787 94.64404010772705 8.087947368621826 C 94.50313472747803 8.408576965332031 94.34077167510986 8.713006973266602 94.1563549041748 8.997875213623047 C 93.97193813323975 9.283966064453125 93.79181289672852 9.578920841217041 93.61633682250977 9.882433891296387 C 93.28243160247803 10.454309940338135 92.95281791687012 11.029853820800781 92.62821102142334 11.610288143157959 C 92.30288887023926 12.190416812896729 91.98269271850586 12.7668776512146 91.66631126403809 13.337836742401123 C 91.47295379638672 13.69545030593872 91.279953956604 14.057037353515625 91.08659648895264 14.422903537750244 C 90.89323902130127 14.78938102722168 90.67365550994873 15.132628917694092 90.42796516418457 15.454175472259521 C 90.28729820251465 15.63298225402832 90.1733341217041 15.76227331161499 90.08547687530518 15.842659950256348 C 89.9975004196167 15.923046588897705 89.90964317321777 15.962781429290771 89.8221435546875 15.962781429290771 C 89.73380947113037 15.962781429290771 89.63736915588379 15.92732572555542 89.5322265625 15.8558030128479 C 89.42672634124756 15.784891605377197 89.29476165771484 15.695029735565186 89.13692855834961 15.588051319122314 C 88.80290412902832 15.356060981750488 88.42965984344482 15.244192123413086 88.01671886444092 15.253056049346924 C 87.60389709472656 15.262531280517578 87.1910753250122 15.33374834060669 86.77849197387695 15.46792984008789 C 86.36555099487305 15.601500034332275 85.96572303771973 15.775722026824951 85.57936573028564 15.989984512329102 C 85.19312763214111 16.204246997833252 84.85910320281982 16.409951210021973 84.57824611663818 16.60587453842163 C 83.62969779968262 17.267001152038574 82.72060775756836 18.043970108032227 81.85097599029541 18.936781406402588 C 81.11426258087158 19.693882942199707 80.49449348449707 20.50447368621826 79.97831726074219 21.36366319656372 C 79.91775894165039 21.46086072921753 79.86995601654053 21.535134315490723 79.8351469039917 21.58831787109375 C 79.58909893035889 21.981692790985107 79.32576560974121 22.356728553771973 79.04478931427002 22.713730812072754 C 78.76357460021973 23.07165002822876 78.47377681732178 23.428346633911133 78.17527675628662 23.785348892211914 C 77.82372856140137 24.19614601135254 77.47253799438477 24.58890962600708 77.12134742736816 24.96455669403076 C 76.76979923248291 25.339592456817627 76.40072727203369 25.714016914367676 76.01472759246826 26.08905267715454 C 75.94403648376465 26.14223623275757 75.84747695922852 26.222622871398926 75.72492980957031 26.329906940460205 C 75.60178661346436 26.437191009521484 75.46982192993164 26.54019594192505 75.32951259613037 26.638004779815674 C 75.1884880065918 26.73703622817993 75.04829788208008 26.808253288269043 74.90810775756836 26.852267265319824 C 74.76696395874023 26.89719820022583 74.64441680908203 26.892613410949707 74.53891658782959 26.838818550109863 C 74.39824962615967 26.76821279525757 74.32827377319336 26.66062307357788 74.32827377319336 26.51788330078125 C 74.32827377319336 26.37483787536621 74.34555912017822 26.249825954437256 74.38108348846436 26.14223623275757 C 74.52127361297607 25.518093585968018 74.76696395874023 24.928184032440186 75.11863136291504 24.374952793121338 C 75.46982192993164 23.821415901184082 75.80372714996338 23.28591251373291 76.1197509765625 22.767525672912598 C 76.27794170379639 22.517501831054688 76.42731094360352 22.267783641815186 76.56785869598389 22.017454147338867 C 76.70852565765381 21.76712465286255 76.84871578216553 21.517712116241455 76.98938274383545 21.26707696914673 C 77.48124027252197 20.40972137451172 77.96439552307129 19.55756187438965 78.4386100769043 18.709070205688477 C 78.91330146789551 17.860884189605713 79.4222059249878 17.025535583496094 79.96711158752441 16.204246997833252 C 80.00192070007324 16.151063442230225 80.04602813720703 16.079235076904297 80.09883785247803 15.989984512329102 C 80.15152835845947 15.900428295135498 80.19539737701416 15.815762519836426 80.23044490814209 15.735681533813477 C 80.26561164855957 15.654989242553711 80.27419471740723 15.570629119873047 80.25702857971191 15.480461597442627 C 80.23902797698975 15.391822338104248 80.18669509887695 15.320299625396729 80.09883785247803 15.266504764556885 C 79.9581708908081 15.17725419998169 79.81750392913818 15.164111137390137 79.67731380462646 15.226769924163818 C 79.53628921508789 15.289123058319092 79.39609909057617 15.320299625396729 79.25543212890625 15.320299625396729 C 78.95657444000244 15.338027477264404 78.64508056640625 15.338027477264404 78.32011604309082 15.320299625396729 C 77.99503231048584 15.302877426147461 77.70106220245361 15.346891403198242 77.43737125396729 15.454175472259521 C 77.2268476486206 15.544037342071533 77.06865692138672 15.677913188934326 76.96315670013428 15.8558030128479 C 76.92763233184814 15.892175674438477 76.86182880401611 15.985705375671387 76.76574611663818 16.137003421783447 C 76.6688289642334 16.288912773132324 76.62913227081299 16.38305377960205 76.64713287353516 16.418203830718994 C 76.50610828399658 16.222280502319336 76.3876142501831 16.016576290130615 76.29117393493652 15.802313804626465 C 76.19461441040039 15.588051319122314 76.02331066131592 15.445311546325684 75.77762031555176 15.373788833618164 C 75.61931037902832 15.320299625396729 75.45670890808105 15.28423261642456 75.28993511199951 15.266504764556885 C 75.12268447875977 15.249082565307617 74.96044063568115 15.231354713439941 74.80260753631592 15.21301555633545 C 74.45094013214111 15.21301555633545 74.1128625869751 15.275979995727539 73.78789806365967 15.400686264038086 C 73.46293354034424 15.525698184967041 73.14237976074219 15.651015758514404 72.82635593414307 15.775722026824951 C 72.43964099884033 15.918461799621582 72.07533740997314 16.088404655456543 71.7327299118042 16.28463363647461 C 71.39012241363525 16.481473922729492 71.05180644989014 16.68626117706299 70.7181396484375 16.90052366256714 C 70.48961544036865 17.06190824508667 70.27038955688477 17.22207021713257 70.05950832366943 17.382843494415283 C 69.84850788116455 17.543616771697998 69.64656734466553 17.71355962753296 69.45356750488281 17.892366409301758 C 68.7504711151123 18.517120361328125 68.12700653076172 19.195363521575928 67.58245849609375 19.927707195281982 C 67.26679229736328 20.352258682250977 66.96650409698486 20.79209280014038 66.6747989654541 21.240485191345215 C 66.58729934692383 21.36549711227417 66.50909805297852 21.47767162322998 66.44997024536133 21.562031745910645 C 65.99292182922363 22.18709135055542 65.54076099395752 22.82987880706787 65.09313011169434 23.490394115447998 C 64.64502239227295 24.151215076446533 64.1483964920044 24.768022060394287 63.60420608520508 25.339592456817627 C 63.48118209838867 25.463993072509766 63.34468746185303 25.60245370864868 63.1957950592041 25.75436305999756 C 63.04618740081787 25.906578063964844 62.883466720581055 26.04014825820923 62.70846748352051 26.155990600585938 C 62.53227615356445 26.272138595581055 62.352389335632324 26.361694812774658 62.168091773986816 26.42404794692993 C 61.98367500305176 26.486706733703613 61.79484748840332 26.490985870361328 61.60149002075195 26.437191009521484 C 61.408132553100586 26.384313106536865 61.30704307556152 26.240962028503418 61.29846000671387 26.008666038513184 C 61.28951930999756 25.776981353759766 61.32051372528076 25.518093585968018 61.39084720611572 25.23200273513794 C 61.46082305908203 24.94621753692627 61.54903793334961 24.67388105392456 61.6541805267334 24.414993286132812 C 61.75968074798584 24.156105518341064 61.83895492553711 23.98157787322998 61.8912878036499 23.892327308654785 C 62.031954765319824 23.571086406707764 62.18525791168213 23.249539852142334 62.352389335632324 22.927993297576904 C 62.51928234100342 22.60705804824829 62.69916915893555 22.284900188446045 62.892884254455566 21.963659286499023 C 63.50728893280029 20.892041206359863 64.20120620727539 19.82959270477295 64.97451686859131 18.776008129119873 C 65.16751670837402 18.52628993988037 65.36051654815674 18.280545234680176 65.55423164367676 18.039385318756104 C 65.74723148345947 17.797919750213623 65.9491720199585 17.553092002868652 66.16017246246338 17.302762508392334 C 66.3003625869751 17.123650074005127 66.4761962890625 16.922836303710938 66.68719673156738 16.700015544891357 C 66.89807796478271 16.47688913345337 67.01216125488281 16.24031400680542 67.02968502044678 15.989984512329102 C 67.04685115814209 15.739960670471191 66.96805381774902 15.579798698425293 66.79257774353027 15.507970333099365 C 66.61674404144287 15.436753273010254 66.43244647979736 15.4272780418396 66.239089012146 15.480461597442627 C 65.57151699066162 15.677913188934326 64.91240882873535 15.811177730560303 64.26283740997314 15.883311748504639 C 63.76025104522705 15.938023567199707 63.26839351654053 15.847856044769287 62.78702640533447 15.614948749542236 C 62.33522319793701 15.36431360244751 61.95339584350586 14.771958827972412 61.466068267822266 15.486574649810791 C 61.38452911376953 15.584077835083008 61.30668544769287 15.697474956512451 61.232656478881836 15.828905582427979 C 61.135024070739746 15.993041038513184 61.008185386657715 16.395585536956787 60.88706874847412 16.853453159332275 C 60.88671112060547 16.855287075042725 60.885995864868164 16.857120990753174 60.88528060913086 16.85926055908203 C 60.08109474182129 19.441108226776123 55.2987756729126 26.410293579101562 52.80086421966553 26.410293579101562 C 52.67772102355957 26.410293579101562 52.56220722198486 26.398373126983643 52.45074653625488 26.379422664642334 C 52.36777687072754 26.35619306564331 52.29029083251953 26.32409954071045 52.22103023529053 26.277029037475586 C 52.06295871734619 26.169744968414307 51.94851779937744 26.008666038513184 51.87854194641113 25.794403553009033 C 51.80820846557617 25.580141067504883 51.81679153442383 25.321558952331543 51.904648780822754 25.01743459701538 C 51.99262523651123 24.625282287597656 52.13281536102295 24.249635219573975 52.32664966583252 23.892327308654785 C 52.519530296325684 23.535325050354004 52.730173110961914 23.186881065368652 52.95857810974121 22.847912311553955 C 53.854793548583984 21.526270389556885 54.70666313171387 20.19545888900757 55.51454448699951 18.85670042037964 C 56.322425842285156 17.517024993896484 57.13924789428711 16.168485641479492 57.96536827087402 14.811082363128662 C 58.14084434509277 14.507569313049316 58.33408260345459 14.244402408599854 58.54508304595947 14.020970344543457 C 58.75560665130615 13.797843933105469 59.04552364349365 13.685975074768066 59.41459560394287 13.685975074768066 C 59.67792892456055 13.668858528137207 59.96331596374512 13.681695938110352 60.27075672149658 13.72632122039795 C 60.57819747924805 13.770946502685547 60.85452461242676 13.722042083740234 61.10104942321777 13.578996658325195 C 61.22371578216553 13.508085250854492 61.32921600341797 13.364122867584229 61.417073249816895 13.150471687316895 C 61.50493049621582 12.936514854431152 61.4870491027832 12.775130271911621 61.36438274383545 12.668457508087158 C 61.25876331329346 12.596934795379639 61.13132858276367 12.556894302368164 60.9825553894043 12.54741907119751 C 60.832828521728516 12.538555145263672 60.67463779449463 12.538555145263672 60.507863998413086 12.54741907119751 C 60.34109020233154 12.556894302368164 60.17872714996338 12.565452575683594 60.02053642272949 12.574316501617432 C 59.862345695495605 12.583486080169678 59.73073863983154 12.570648670196533 59.6252384185791 12.53366470336914 C 59.76590538024902 12.034533977508545 60.00301265716553 11.556493282318115 60.336917877197266 11.1013765335083 C 60.6701078414917 10.645954132080078 60.9600248336792 10.203674793243408 61.206549644470215 9.7748441696167 C 61.43423938751221 9.382691860198975 61.667174339294434 8.997875213623047 61.90475845336914 8.62314510345459 C 62.141865730285645 8.248109340667725 62.33045482635498 7.855651378631592 62.47100257873535 7.44424295425415 C 62.54097843170166 7.266353130340576 62.61608028411865 7.0652337074279785 62.69499683380127 6.841801643371582 C 62.77427101135254 6.618675231933594 62.76938343048096 6.417555809020996 62.682003021240234 6.2390546798706055 C 62.54097843170166 5.9893364906311035 62.33927631378174 5.868603706359863 62.07606220245361 5.877161979675293 C 61.812371253967285 5.886637210845947 61.57526397705078 5.909255504608154 61.36438274383545 5.944405555725098 C 61.18854904174805 5.980472564697266 60.99554920196533 5.9893364906311035 60.78466796875 5.9713029861450195 C 60.57414436340332 5.9532694816589355 60.36314392089844 5.944405555725098 60.152143478393555 5.944405555725098 C 59.941619873046875 5.944405555725098 59.7393217086792 5.962439060211182 59.546321868896484 5.998200416564941 C 59.35296440124512 6.033656120300293 59.186190605163574 6.104873180389404 59.04552364349365 6.212462902069092 C 58.922499656677246 6.319441318511963 58.821529388427734 6.458207607269287 58.742493629455566 6.62784481048584 C 58.6636962890625 6.797176361083984 58.59300518035889 6.975983142852783 58.531612396240234 7.1630425453186035 C 58.46998119354248 7.35071325302124 58.41311836242676 7.538078308105469 58.36030864715576 7.7257490158081055 C 58.30797576904297 7.913419723510742 58.25528526306152 8.07877779006958 58.20247554779053 8.221517562866211 C 58.04428482055664 8.596553325653076 57.87298107147217 8.962725162506104 57.68856430053711 9.319421768188477 C 57.5042667388916 9.677035331726074 57.31496238708496 10.03495454788208 57.1220817565918 10.390734195709229 C 57.016581535339355 10.58788013458252 56.902140617370605 10.797557830810547 56.77947425842285 11.020684242248535 C 56.656331062316895 11.243810653686523 56.516140937805176 11.45868444442749 56.35795021057129 11.663777351379395 C 56.1997594833374 11.869175910949707 56.02392578125 12.043703556060791 55.830925941467285 12.185832023620605 C 55.63756847381592 12.329183101654053 55.41810417175293 12.418433666229248 55.17229461669922 12.454500675201416 C 55.04891300201416 12.471922874450684 54.88666915893555 12.467032432556152 54.68460941314697 12.440440654754639 C 54.4827880859375 12.413848876953125 54.28037071228027 12.404679298400879 54.0787878036499 12.413848876953125 C 53.876370429992676 12.423018455505371 53.69207286834717 12.463670253753662 53.525299072265625 12.53366470336914 C 53.35804843902588 12.605798721313477 53.25743579864502 12.73967456817627 53.22226905822754 12.936514854431152 C 53.18686389923096 13.150471687316895 53.2395544052124 13.293517112731934 53.38057899475098 13.364122867584229 C 53.520769119262695 13.436256885528564 53.68754291534424 13.476603031158447 53.880900382995605 13.485466957092285 C 54.07437705993652 13.494330883026123 54.276198387145996 13.502889156341553 54.48719882965088 13.51175308227539 C 54.69772243499756 13.520922660827637 54.855913162231445 13.570132732391357 54.96141338348389 13.659383296966553 C 54.83838939666748 13.71256685256958 54.746002197265625 13.811598300933838 54.68460941314697 13.953726768493652 C 54.62297821044922 14.097383499145508 54.566115379333496 14.221784114837646 54.5133056640625 14.329068183898926 C 54.355472564697266 14.615159034729004 54.144591331481934 14.918366432189941 53.880900382995605 15.239912986755371 C 53.03785228729248 16.400781631469727 52.23414325714111 17.596800327301025 51.470130920410156 18.829802989959717 C 50.890058517456055 19.765405654907227 50.34658336639404 20.71415138244629 49.821943283081055 21.670844078063965 C 49.8140754699707 21.67817974090576 49.803585052490234 21.68857192993164 49.79643249511719 21.69560194015503 C 49.49769401550293 22.034876346588135 49.23841381072998 22.40135383605957 49.019307136535645 22.79442310333252 C 48.79936599731445 23.186881065368652 48.54878807067871 23.561916828155518 48.26828861236572 23.919530391693115 C 48.02188301086426 24.258499145507812 47.76749038696289 24.58890962600708 47.504157066345215 24.91045618057251 C 47.24046611785889 25.23200273513794 46.94172763824463 25.526651859283447 46.60806083679199 25.794403553009033 C 46.36201286315918 25.990938186645508 46.11632251739502 26.17402410507202 45.870155334472656 26.343661308288574 C 45.624107360839844 26.513298511505127 45.3432502746582 26.607439517974854 45.02722644805908 26.62516736984253 C 44.71084499359131 26.66062307357788 44.473618507385254 26.557923793792725 44.31578540802002 26.316763877868652 C 44.15759468078613 26.07560396194458 44.03457069396973 25.821300983428955 43.9467134475708 25.55324363708496 C 43.84121322631836 25.30321979522705 43.783992767333984 25.026604175567627 43.77540969848633 24.72309112548828 C 43.76634979248047 24.419272422790527 43.753355979919434 24.12462329864502 43.73607063293457 23.83853244781494 C 43.73607063293457 23.428346633911133 43.74477291107178 23.0582013130188 43.76229667663574 22.727179527282715 C 43.779582023620605 22.397074699401855 43.92048740386963 22.062079429626465 44.183820724487305 21.722193717956543 C 44.64051151275635 21.115778923034668 45.119256019592285 20.49958324432373 45.62005424499512 19.874217987060547 C 46.1207332611084 19.24915838241577 46.704501152038574 18.74911069869995 47.3721923828125 18.374074935913086 C 47.53038311004639 18.302552223205566 47.69715690612793 18.231335163116455 47.87299060821533 18.159812450408936 C 48.04834747314453 18.088289737701416 48.224181175231934 18.039385318756104 48.400014877319336 18.012182235717773 C 48.575371742248535 17.98559045791626 48.74667549133301 17.998733520507812 48.9138069152832 18.052834033966064 C 49.080580711364746 18.1063232421875 49.2340030670166 18.21330165863037 49.374908447265625 18.374074935913086 C 49.515217781066895 18.57091522216797 49.65171241760254 18.664750576019287 49.7833194732666 18.65558099746704 C 49.915045738220215 18.646411418914795 50.06870651245117 18.57091522216797 50.244540214538574 18.42756414413452 C 50.38473033905029 18.302552223205566 50.5385103225708 18.110602378845215 50.705641746520996 17.852020263671875 C 50.87241554260254 17.593132495880127 51.00414180755615 17.31193208694458 51.10093975067139 17.00750207901001 C 51.19714164733887 16.703989028930664 51.241249084472656 16.414535999298096 51.232666015625 16.137003421783447 C 51.22360610961914 15.860387802124023 51.11405277252197 15.64154052734375 50.90317153930664 15.480461597442627 C 50.65700435638428 15.28423261642456 50.37173652648926 15.195593357086182 50.04665279388428 15.21301555633545 C 49.7215690612793 15.231354713439941 49.43630123138428 15.28423261642456 49.190491676330566 15.373788833618164 C 48.80389595031738 15.516834259033203 48.435062408447266 15.739960670471191 48.083871841430664 16.043473720550537 C 47.46863269805908 16.543827056884766 46.919673919677734 17.106533527374268 46.43675708770752 17.73067617416382 C 45.9536018371582 18.35665273666382 45.4573335647583 18.972848415374756 44.948309898376465 19.57956886291504 C 44.824928283691406 19.722614288330078 44.70619583129883 19.85679578781128 44.59223175048828 19.981196403503418 C 44.47779083251953 20.10651397705078 44.368595123291016 20.240389823913574 44.263094902038574 20.383435249328613 C 44.15759468078613 20.526480674743652 44.08726119995117 20.579969882965088 44.05209445953369 20.54359722137451 C 44.01668930053711 20.50844717025757 44.00357627868652 20.432645320892334 44.01251697540283 20.31619167327881 C 44.02157688140869 20.20004367828369 44.039100646972656 20.070446968078613 44.06520748138428 19.927707195281982 C 44.0917911529541 19.78496742248535 44.10490417480469 19.68685293197632 44.10490417480469 19.633058071136475 C 44.174760818481445 19.169077396392822 44.289320945739746 18.71334934234619 44.44751167297363 18.267096519470215 C 44.60570240020752 17.82053804397583 44.77211856842041 17.374285221099854 44.948309898376465 16.92772674560547 C 44.96547603607178 16.856509685516357 45.00064277648926 16.762979984283447 45.0533332824707 16.646526336669922 C 45.1061429977417 16.530072689056396 45.14572048187256 16.409951210021973 45.17194652557373 16.28463363647461 C 45.198530197143555 16.159316062927246 45.20711326599121 16.043473720550537 45.198530197143555 15.936495304107666 C 45.189470291137695 15.828905582427979 45.13260746002197 15.74882459640503 45.02722644805908 15.695029735565186 C 44.92172622680664 15.62442398071289 44.798583030700684 15.601500034332275 44.658392906188965 15.628091812133789 C 44.51736831665039 15.654989242553711 44.39482116699219 15.677913188934326 44.289320945739746 15.695029735565186 C 44.09596347808838 15.731096744537354 43.90260601043701 15.875670433044434 43.7096061706543 15.892786979675293 C 43.51612949371338 15.911126136779785 43.32289123535156 16.03644371032715 43.12989139556885 16.03644371032715 C 42.989224433898926 16.03644371032715 42.83556365966797 16.03644371032715 42.668789863586426 16.03644371032715 C 42.50153923034668 16.03644371032715 42.36575984954834 15.96461534500122 42.26037883758545 16.053560256958008 C 42.22521209716797 16.089627265930176 42.20303916931152 16.08871030807495 42.19445610046387 16.16909694671631 C 42.18551540374756 16.24887228012085 42.163819313049316 16.286773204803467 42.128652572631836 16.34056806564331 C 41.98762798309326 16.679842472076416 41.82121181488037 16.996192932128906 41.627854347229004 17.317433834075928 C 41.43449687957764 17.63867473602295 41.24161624908447 17.944021701812744 41.048139572143555 18.24753475189209 C 40.85490131378174 18.586809158325195 40.653199195861816 18.91783094406128 40.442317962646484 19.248241424560547 C 40.2313175201416 19.578957557678223 40.01149559020996 19.90264368057251 39.78368663787842 20.22419023513794 C 39.642662048339844 20.421030521392822 39.48900127410889 20.60839557647705 39.322585105895996 20.785979747772217 C 39.15533447265625 20.964786529541016 39.01919746398926 21.16957378387451 38.91417407989502 21.401564121246338 C 38.91226673126221 21.40645456314087 38.91119384765625 21.413790225982666 38.90964412689209 21.41806936264038 C 38.902849197387695 21.42662763595581 38.89426612854004 21.433046340942383 38.887590408325195 21.441298961639404 C 38.799256324768066 21.55744695663452 38.737982749938965 21.651587963104248 38.70317363739014 21.722193717956543 C 38.40431594848633 22.223158359527588 38.087934494018555 22.696614265441895 37.75474452972412 23.142255783081055 C 37.42072010040283 23.589119911193848 37.06952953338623 24.044236660003662 36.70045757293701 24.50882863998413 C 36.55979061126709 24.66899061203003 36.42818355560303 24.821511268615723 36.30551719665527 24.96455669403076 C 36.182016372680664 25.106990814208984 36.0504093170166 25.258288860321045 35.91021919250488 25.419367790222168 C 35.751909255981445 25.563024520874023 35.602301597595215 25.714016914367676 35.462111473083496 25.874178886413574 C 35.321444511413574 26.035869121551514 35.16325378417969 26.187472820281982 34.98789691925049 26.329906940460205 C 34.846872329711914 26.437191009521484 34.68903923034668 26.557923793792725 34.51368236541748 26.692105293273926 C 34.33784866333008 26.82567548751831 34.15307426452637 26.86663293838501 33.9601936340332 26.81222677230835 C 33.57335948944092 26.741315364837646 33.55583572387695 26.23240375518799 33.90738391876221 25.285186290740967 C 34.170955657958984 24.570876121520996 34.50426483154297 23.90180253982544 34.90850353240967 23.276131629943848 C 35.347670555114746 22.597888469696045 35.75608158111572 21.89274787902832 36.1342134475708 21.160098552703857 C 36.51151084899902 20.428671836853027 36.928504943847656 19.722614288330078 37.3856725692749 19.044065475463867 C 37.64924430847168 18.650996208190918 37.92116069793701 18.21330165863037 38.202375411987305 17.73067617416382 C 38.32504177093506 17.517024993896484 38.45295333862305 17.302762508392334 38.58467960357666 17.088500022888184 C 38.71628665924072 16.873931884765625 38.80867385864258 16.650805473327637 38.86136436462402 16.418203830718994 C 38.89617347717285 16.311225414276123 38.93134021759033 16.186213493347168 38.96650695800781 16.043473720550537 C 39.00167369842529 15.900428295135498 39.01919746398926 15.771137237548828 39.01919746398926 15.654989242553711 C 39.01919746398926 15.539146900177002 38.98856067657471 15.44072675704956 38.927287101745605 15.360645771026611 C 38.8655366897583 15.279953479766846 38.74692344665527 15.239912986755371 38.571566581726074 15.239912986755371 C 38.39573287963867 15.239912986755371 38.2244291305542 15.253056049346924 38.057655334472656 15.279953479766846 C 37.89052391052246 15.30654525756836 37.71922016143799 15.311130046844482 37.54374408721924 15.293402194976807 C 37.3856725692749 15.275979995727539 37.227362632751465 15.262531280517578 37.06952953338623 15.253056049346924 C 36.911338806152344 15.244192123413086 36.75314807891846 15.257946491241455 36.59531497955322 15.293402194976807 C 36.366790771484375 15.329469203948975 36.1644926071167 15.38295841217041 35.98901653289795 15.454175472259521 C 35.86599254608154 15.525698184967041 35.787075996398926 15.596915245056152 35.751909255981445 15.66874361038208 C 35.71638488769531 15.739960670471191 35.67299270629883 15.838380813598633 35.62030220031738 15.962781429290771 C 35.602301597595215 15.999459743499756 35.571664810180664 16.069759845733643 35.52791500091553 16.17734956741333 C 35.48380756378174 16.28463363647461 35.44446849822998 16.400781631469727 35.4093017578125 16.52579355239868 C 35.16325378417969 17.31193208694458 34.8297061920166 18.05680751800537 34.40818214416504 18.762253761291504 C 33.98665809631348 19.468005657196045 33.56477642059326 20.160003185272217 33.14337158203125 20.838857650756836 C 32.84451389312744 21.356633186340332 32.546013832092285 21.820919513702393 32.24751377105713 22.23141098022461 C 32.01898956298828 22.55265188217163 31.790584564208984 22.87450408935547 31.56241798400879 23.196356296539307 C 31.33389377593994 23.517597198486328 31.096786499023438 23.83027982711792 30.851096153259277 24.133487224578857 C 30.710071563720703 24.311988353729248 30.57834529876709 24.49507427215576 30.455678939819336 24.6827449798584 C 30.33265495300293 24.870110034942627 30.19210720062256 25.044026374816895 30.034274101257324 25.205105304718018 C 29.928773880004883 25.31208372116089 29.761523246765137 25.490890502929688 29.533475875854492 25.74060869216919 C 29.304832458496094 25.990938186645508 29.049843788146973 26.222622871398926 28.769344329833984 26.437191009521484 C 28.48812961578369 26.65206480026245 28.219908714294434 26.80366849899292 27.965635299682617 26.892613410949707 C 27.710527420043945 26.982780933380127 27.504414558410645 26.901782989501953 27.346223831176758 26.65206480026245 C 27.22319984436035 26.455530166625977 27.214616775512695 26.214370250701904 27.320116996765137 25.928279399871826 C 27.425617218017578 25.642799854278564 27.521699905395508 25.401334285736084 27.609914779663086 25.205105304718018 C 27.855605125427246 24.705363273620605 28.123826026916504 24.227322578430176 28.413623809814453 23.77220582962036 C 28.703540802001953 23.316172122955322 28.99751091003418 22.85738754272461 29.296249389648438 22.392489910125732 C 29.594749450683594 21.927897930145264 29.871553421020508 21.46391725540161 30.126184463500977 20.99963092803955 C 30.380577087402344 20.535038948059082 30.64867877960205 20.070446968078613 30.929893493652344 19.605854988098145 C 31.175703048706055 19.195363521575928 31.421393394470215 18.780592918395996 31.66779899597168 18.360626220703125 C 31.91360855102539 17.941882133483887 32.12413215637207 17.49929714202881 32.300323486328125 17.03470516204834 C 32.37018013000488 16.838170528411865 32.44504356384277 16.597010612487793 32.52396011352539 16.311225414276123 C 32.60323429107666 16.02605152130127 32.59882354736328 15.784891605377197 32.510847091674805 15.588051319122314 C 32.475680351257324 15.480461597442627 32.400816917419434 15.41016149520874 32.28685283660889 15.373788833618164 C 32.17241191864014 15.338027477264404 32.04521560668945 15.324884414672852 31.905025482177734 15.33374834060669 C 31.76400089263916 15.342917919158936 31.62369155883789 15.360645771026611 31.48314380645752 15.387237548828125 C 31.342476844787598 15.413829326629639 31.236976623535156 15.4272780418396 31.167000770568848 15.4272780418396 C 30.9384765625 15.4272780418396 30.714482307434082 15.41016149520874 30.494898796081543 15.373788833618164 C 30.275434494018555 15.338027477264404 30.051440238952637 15.346891403198242 29.82327365875244 15.400686264038086 C 29.524415969848633 15.472208976745605 29.370755195617676 15.614948749542236 29.36217212677002 15.828905582427979 C 29.35311222076416 16.043473720550537 29.32247543334961 16.27576971054077 29.269784927368164 16.52579355239868 C 29.234618186950684 16.703989028930664 29.186338424682617 16.86995840072632 29.125064849853516 17.02125644683838 C 29.06331443786621 17.173471450805664 28.98845100402832 17.329354286193848 28.900951385498047 17.489516258239746 C 28.70759391784668 17.901230335235596 28.49254035949707 18.29368829727173 28.255433082580566 18.668724060058594 C 28.018325805664062 19.044065475463867 27.785390853881836 19.419101238250732 27.55722427368164 19.794137001037598 C 27.311057090759277 20.2226619720459 27.05642604827881 20.646602153778076 26.793092727661133 21.06595754623413 C 26.568025588989258 21.42509937286377 26.352614402770996 21.77904510498047 26.140064239501953 22.13115692138672 C 26.155442237854004 22.048019409179688 26.174158096313477 21.966715812683105 26.186436653137207 21.882966995239258 C 26.221603393554688 21.633554458618164 26.24329948425293 21.29397439956665 26.25271701812744 20.86544942855835 C 26.261300086975098 20.43692445755005 26.234716415405273 20.009010791778564 26.17332363128662 19.57956886291504 C 26.111692428588867 19.15073823928833 25.99307918548584 18.767144203186035 25.81772232055664 18.42756414413452 C 25.64188861846924 18.088289737701416 25.38725757598877 17.88319683074951 25.053709983825684 17.811368465423584 C 24.790019035339355 17.74045705795288 24.62276840209961 17.811368465423584 24.55291175842285 18.025630950927734 C 24.48257827758789 18.2405047416687 24.464935302734375 18.436733722686768 24.500102043151855 18.615234851837158 C 24.605602264404297 19.240294456481934 24.66246509552002 19.824702262878418 24.671405792236328 20.369680881500244 C 24.679988861083984 20.91496515274048 24.58795928955078 21.49967861175537 24.395078659057617 22.12412691116333 C 24.254054069519043 22.57129669189453 24.08716106414795 23.044752597808838 23.894280433654785 23.544188976287842 C 23.700922966003418 24.044236660003662 23.468226432800293 24.513413429260254 23.19595241546631 24.950496673583984 C 22.923320770263672 25.38849687576294 22.598713874816895 25.76781177520752 22.22093963623047 26.08905267715454 C 21.843165397644043 26.410293579101562 21.39100456237793 26.615997791290283 20.864099502563477 26.70524835586548 C 20.40705108642578 26.777076721191406 19.954890251159668 26.78166151046753 19.50678253173828 26.71839141845703 C 19.059151649475098 26.656038284301758 18.61521625518799 26.557923793792725 18.17616844177246 26.42404794692993 C 17.737001419067383 26.289560794830322 17.302006721496582 26.13826274871826 16.871899604797363 25.96862554550171 C 16.44107723236084 25.799293994903564 16.01550006866455 25.642799854278564 15.593976020812988 25.499754428863525 C 15.50576114654541 25.463993072509766 15.387147903442383 25.43251085281372 15.238255500793457 25.406224727630615 C 15.088767051696777 25.379327297210693 14.944046974182129 25.343871593475342 14.803380012512207 25.298940658569336 C 14.662713050842285 25.254621028900146 14.540046691894531 25.19624137878418 14.43466567993164 25.12502431869507 C 14.3291654586792 25.05350160598755 14.28505802154541 24.94621753692627 14.302939414978027 24.80317211151123 C 14.32010555267334 24.625282287597656 14.425605773925781 24.45472812652588 14.618963241577148 24.29456615447998 C 14.811963081359863 24.133487224578857 14.97015380859375 23.991053104400635 15.093297004699707 23.865429878234863 C 15.391677856445312 23.561916828155518 15.668362617492676 23.232117652893066 15.923470497131348 22.87450408935547 C 16.177863121032715 22.517501831054688 16.428083419799805 22.160499572753906 16.67448902130127 21.803191661834717 C 17.078012466430664 21.23131561279297 17.4647274017334 20.64232301712036 17.833918571472168 20.03499126434326 C 18.202632904052734 19.42827081680298 18.53629970550537 18.79373598098755 18.83503818511963 18.132915019989014 C 18.94065761566162 17.88319683074951 19.03662109375 17.624003410339355 19.12495517730713 17.35625171661377 C 19.212454795837402 17.088500022888184 19.388288497924805 16.88310146331787 19.651860237121582 16.740056037902832 C 20.108551025390625 16.489726543426514 20.587295532226562 16.24887228012085 21.088093757629395 16.016576290130615 C 21.588534355163574 15.784891605377197 22.07621955871582 15.544037342071533 22.550434112548828 15.293402194976807 C 23.55167293548584 14.793660163879395 24.504155158996582 14.190913200378418 25.409311294555664 13.485466957092285 C 26.313990592956543 12.780020713806152 27.170151710510254 12.034533977508545 27.97839069366455 11.248701095581055 C 28.382271766662598 10.837598323822021 28.768986701965332 10.418242931365967 29.1377010345459 9.989717960357666 C 29.506892204284668 9.560887336730957 29.85808277130127 9.114023208618164 30.191630363464355 8.65034818649292 C 30.43779754638672 8.346223831176758 30.666202545166016 8.033541202545166 30.876845359802246 7.712605953216553 C 31.087726593017578 7.391365051269531 31.280726432800293 7.0606489181518555 31.456560134887695 6.721068859100342 C 31.649917602539062 6.328916549682617 31.807750701904297 5.86401891708374 31.930774688720703 5.327904224395752 C 32.05344104766846 4.792706489562988 32.08896541595459 4.279210090637207 32.036274909973145 3.7880263328552246 C 31.98346519470215 3.296842575073242 31.812280654907227 2.86342716217041 31.522363662719727 2.488697052001953 C 31.232446670532227 2.113661289215088 30.78898811340332 1.8905348777770996 30.191630363464355 1.8187065124511719 C 29.27836799621582 1.7297616004943848 28.351634979248047 1.868527889251709 27.41214656829834 2.234394073486328 C 26.471823692321777 2.6005659103393555 25.633305549621582 3.0339813232421875 24.895400047302246 3.5334177017211914 C 23.894280433654785 4.193933010101318 22.96289825439453 4.9794602394104 22.102445602416992 5.890610694885254 C 21.2413969039917 6.801761150360107 20.459741592407227 7.7483673095703125 19.757360458374023 8.730123519897461 C 19.317955017089844 9.319421768188477 18.914073944091797 9.927364826202393 18.54524040222168 10.55211877822876 C 18.17616844177246 11.177178382873535 17.81591796875 11.811101913452148 17.4647274017334 12.454500675201416 C 17.289012908935547 12.775130271911621 17.122119903564453 13.09667682647705 16.96428680419922 13.418529033660889 C 16.806215286254883 13.739464282989502 16.647905349731445 14.060705184936523 16.48971462249756 14.38286304473877 C 16.366690635681152 14.63288688659668 16.23949432373047 14.887495517730713 16.107887268066406 15.146383285522461 C 15.976280212402344 15.405576705932617 15.822142601013184 15.62442398071289 15.646666526794434 15.802313804626465 C 15.470952033996582 15.981426239013672 15.2599515914917 16.110411643981934 15.014261245727539 16.19079828262329 C 14.768213272094727 16.27118492126465 14.478296279907227 16.266905784606934 14.14474868774414 16.17734956741333 C 13.42436695098877 15.981426239013672 12.80960464477539 15.659268379211426 12.300223350524902 15.21301555633545 C 11.790365219116211 14.766762733459473 11.395424842834473 14.244402408599854 11.114567756652832 13.645934581756592 C 10.833353042602539 13.048383712768555 10.662049293518066 12.404679298400879 10.600656509399414 11.71726655960083 C 10.53902530670166 11.029853820800781 10.596245765686035 10.33785629272461 10.771960258483887 9.641273975372314 C 10.912269592285156 9.03485918045044 11.144966125488281 8.448617458343506 11.470288276672363 7.88652229309082 C 11.79489517211914 7.324427127838135 12.190193176269531 6.828352928161621 12.655824661254883 6.399522304534912 C 13.121098518371582 5.9713029861450195 13.643950462341309 5.627443790435791 14.223665237426758 5.368556022644043 C 14.803380012512207 5.109668254852295 15.418261528015137 4.9794602394104 16.068190574645996 4.9794602394104 C 16.1909761428833 4.9794602394104 16.397685050964355 5.0112481117248535 16.687602043151855 5.073906898498535 C 16.977399826049805 5.136260032653809 17.262786865234375 5.172021389007568 17.544001579284668 5.180885314941406 C 17.824501037597656 5.190054893493652 18.057555198669434 5.153987884521484 18.242329597473145 5.073906898498535 C 18.426627159118652 4.993520259857178 18.47490692138672 4.801876068115234 18.387049674987793 4.497751712799072 C 18.298834800720215 4.2303056716918945 18.14100170135498 4.046914100646973 17.912835121154785 3.9484939575195312 C 17.684310913085938 3.8506851196289062 17.429560661315918 3.7926111221313477 17.148703575134277 3.7742719650268555 C 16.867488861083984 3.7565441131591797 16.58615493774414 3.765713691711426 16.3052978515625 3.8011693954467773 C 16.024083137512207 3.8375420570373535 15.79555892944336 3.864133834838867 15.62020206451416 3.881861686706543 C 14.671772956848145 4.024601459503174 13.766616821289062 4.310692310333252 12.906402587890625 4.7389116287231445 C 12.168497085571289 5.11394739151001 11.47887134552002 5.573648929595947 10.837882995605469 6.118627548217773 C 10.196417808532715 6.663300514221191 9.647339820861816 7.274911403656006 9.191125869750977 7.953460216522217 C 8.839577674865723 8.47184705734253 8.532136917114258 9.056560516357422 8.268803596496582 9.70851755142212 C 8.005112648010254 10.360168933868408 7.873505592346191 11.007235527038574 7.873505592346191 11.650022983551025 C 7.873505592346191 12.48965072631836 7.991999626159668 13.284347534179688 8.229106903076172 14.034419059753418 C 8.466333389282227 14.784490585327148 8.909791946411133 15.445311546325684 9.559959411621094 16.016576290130615 C 9.911030769348145 16.338122844696045 10.306447982788086 16.60587453842163 10.745495796203613 16.82044267654419 C 11.18454360961914 17.03470516204834 11.641592025756836 17.20495367050171 12.115806579589844 17.329354286193848 C 12.554854393005371 17.43633270263672 12.998432159423828 17.485848426818848 13.446539878845215 17.47698450088501 C 13.89452838897705 17.467814922332764 14.3291654586792 17.50785541534424 14.750689506530762 17.596800327301025 C 14.768213272094727 17.596800327301025 14.715522766113281 17.735872268676758 14.592856407165527 18.012182235717773 C 14.46971321105957 18.289714813232422 14.3291654586792 18.59781265258789 14.170974731445312 18.936781406402588 C 14.013141632080078 19.2763614654541 13.863533973693848 19.597602367401123 13.723224639892578 19.90111541748047 C 13.582200050354004 20.204628467559814 13.503402709960938 20.383435249328613 13.486117362976074 20.43692445755005 C 13.204902648925781 21.00849485397339 12.910574913024902 21.575480461120605 12.603134155273438 22.1378812789917 C 12.295693397521973 22.699976444244385 11.91374683380127 23.213778495788574 11.457175254821777 23.678370475769043 C 11.246294021606445 23.892327308654785 11.022180557250977 23.99533224105835 10.785073280334473 23.98646831512451 C 10.547966003417969 23.977298736572266 10.288447380065918 23.94581651687622 10.00794792175293 23.892327308654785 C 9.375542640686035 23.785348892211914 8.716553688049316 23.73155403137207 8.031696319580078 23.73155403137207 C 7.3464813232421875 23.73155403137207 6.687969207763672 23.776179313659668 6.055444717407227 23.865429878234863 C 5.651206016540527 23.919530391693115 5.260318756103516 23.964155673980713 4.882663726806641 23.999611377716064 C 4.504770278930664 24.03628969192505 4.114002227783203 24.12462329864502 3.7101211547851562 24.26766872406006 C 3.3585729598999023 24.392680644989014 3.0204954147338867 24.554065227508545 2.6957693099975586 24.749988555908203 C 2.3704471588134766 24.94621753692627 2.107113838195801 25.178207874298096 1.9051733016967773 25.44626522064209 C 1.703232765197754 25.714016914367676 1.5891494750976562 26.008666038513184 1.562565803527832 26.329906940460205 C 1.536458969116211 26.65206480026245 1.6549530029296875 27.009067058563232 1.9182863235473633 27.401525020599365 C 2.251833915710449 27.8835391998291 2.6778879165649414 28.18338441848755 3.1962099075317383 28.299226760864258 C 3.7142934799194336 28.415680408477783 4.237026214599609 28.49973487854004 4.764050483703613 28.553529739379883 C 5.238622665405273 28.589291095733643 5.694955825805664 28.593875885009766 6.134361267089844 28.567284107208252 C 6.573051452636719 28.54038667678833 7.021039962768555 28.48231267929077 7.478207588195801 28.393062114715576 C 7.969945907592773 28.286083698272705 8.448690414428711 28.16107177734375 8.914321899414062 28.01802635192871 C 9.379595756530762 27.87559223175049 9.832114219665527 27.69647979736328 10.271162033081055 27.481911659240723 C 10.675162315368652 27.285988330841064 11.057347297668457 27.13377332687378 11.417478561401367 27.0264892578125 C 11.777371406555176 26.91920518875122 12.185782432556152 26.93784999847412 12.642711639404297 27.080589771270752 C 13.204902648925781 27.27681875228882 13.74492073059082 27.481911659240723 14.263361930847168 27.69647979736328 C 14.781326293945312 27.91074228286743 15.33028507232666 28.06265163421631 15.91011905670166 28.151902198791504 C 16.366690635681152 28.223424911499023 16.83649444580078 28.314815044403076 17.32000732421875 28.37716817855835 C 17.802804946899414 28.44013261795044 18.28154945373535 28.495455741882324 18.75576400756836 28.495455741882324 C 18.75576400756836 28.495455741882324 18.782347679138184 28.495455741882324 18.782347679138184 28.495455741882324 C 19.783586502075195 28.495455741882324 20.74548625946045 28.221285343170166 21.667808532714844 27.828216075897217 C 22.589653968811035 27.435452461242676 23.40206527709961 26.869383811950684 24.105161666870117 26.155073642730713 C 24.215907096862793 26.03281259536743 24.31795024871826 25.899548053741455 24.420827865600586 25.77300786972046 C 24.409622192382812 25.82741403579712 24.391621589660645 25.877235412597656 24.38184642791748 25.9310302734375 C 24.303049087524414 26.35986089706421 24.316162109375 26.79663848876953 24.42154312133789 27.242891311645508 C 24.45635223388672 27.422003746032715 24.53109645843506 27.61701011657715 24.64553737640381 27.83096694946289 C 24.759620666503906 28.04522943496704 24.89587688446045 28.197138786315918 25.053948402404785 28.286389350891113 C 25.14156723022461 28.33957290649414 25.225252151489258 28.384503841400146 25.304168701171875 28.420265197753906 C 25.383085250854492 28.455720901489258 25.46653175354004 28.491482257843018 25.554388999938965 28.52693796157837 C 25.747746467590332 28.59846067428589 25.96280002593994 28.629637241363525 26.199907302856445 28.620773315429688 C 26.437491416931152 28.611298084259033 26.65206813812256 28.589291095733643 26.84590244293213 28.553529739379883 C 27.179092407226562 28.48231267929077 27.48689079284668 28.343546390533447 27.76774787902832 28.138453483581543 C 28.04860496520996 27.93305492401123 28.32135581970215 27.73254680633545 28.584927558898926 27.535706520080566 C 29.059142112731934 27.160365104675293 29.533475875854492 26.714417934417725 30.0076904296875 26.19633674621582 C 30.165881156921387 26.05329132080078 30.31918430328369 25.897408485412598 30.468791961669922 25.727465629577637 C 30.6180419921875 25.5584397315979 30.727595329284668 25.437401294708252 30.79828643798828 25.365572929382324 C 30.956119537353516 25.169649600982666 31.04397678375244 25.084372520446777 31.061619758605957 25.111575603485107 C 31.07878589630127 25.13816738128662 31.05267906188965 25.31208372116089 30.98270320892334 25.63332462310791 C 30.89448833465576 25.973210334777832 30.846208572387695 26.365973949432373 30.83762550354004 26.81222677230835 C 30.82856559753418 27.258785247802734 30.9384765625 27.62495708465576 31.167000770568848 27.91074228286743 C 31.41281032562256 28.231677532196045 31.746715545654297 28.428823471069336 32.16823959350586 28.49973487854004 C 32.590121269226074 28.571868896484375 32.976120948791504 28.56269931793213 33.32766914367676 28.472837448120117 C 33.85457420349121 28.330708980560303 34.33784866333008 28.071515560150146 34.776896476745605 27.69647979736328 C 35.037607192993164 27.47396469116211 35.27805233001709 27.24228000640869 35.507768630981445 27.007233142852783 C 35.50657653808594 27.018847942352295 35.50252342224121 27.028934478759766 35.501808166503906 27.04024362564087 C 35.47522449493408 27.352620601654053 35.532087326049805 27.652160167694092 35.67299270629883 27.937639713287354 C 35.86599254608154 28.27691411972046 36.17343330383301 28.435853481292725 36.59531497955322 28.52479839324951 C 36.682814598083496 28.542831897735596 36.77067184448242 28.495455741882324 36.85852909088135 28.495455741882324 C 36.946505546569824 28.495455741882324 37.0340051651001 28.495455741882324 37.122220039367676 28.495455741882324 C 37.42072010040283 28.495455741882324 37.7061071395874 28.466724395751953 37.97838115692139 28.350270748138428 C 38.25065517425537 28.235345363616943 38.50981616973877 28.115529537200928 38.75586414337158 27.93641710281372 C 38.98403072357178 27.776255130767822 39.19467353820801 27.606923580169678 39.38838863372803 27.401525020599365 C 39.58138847351074 27.196126461029053 39.77438831329346 26.99256181716919 39.96810340881348 26.77829933166504 C 40.12593650817871 26.58237600326538 40.288180351257324 26.398067474365234 40.45531177520752 26.219260692596436 C 40.62220478057861 26.04137086868286 40.78492546081543 25.855228424072266 40.943116188049316 25.65869379043579 C 40.977925300598145 25.622626781463623 40.99962139129639 25.59236717224121 41.00891971588135 25.565775394439697 C 41.017502784729004 25.538877964019775 41.039198875427246 25.544074058532715 41.07472324371338 25.579835414886475 C 41.127413749694824 25.615902423858643 41.16675281524658 25.695677757263184 41.193336486816406 25.820995330810547 C 41.21944332122803 25.946007251739502 41.24161624908447 26.035257816314697 41.25914001464844 26.08905267715454 C 41.38180637359619 26.517577648162842 41.553110122680664 26.923789978027344 41.773051261901855 27.307995319366455 C 41.992515563964844 27.691895008087158 42.304128646850586 28.000298500061035 42.708367347717285 28.231677532196045 C 42.9013671875 28.339267253875732 43.1077184677124 28.410484313964844 43.327659606933594 28.446245670318604 C 43.54688549041748 28.48231267929077 43.76229667663574 28.48231267929077 43.973297119140625 28.446245670318604 C 44.16629695892334 28.428823471069336 44.3817081451416 28.388477325439453 44.618815422058105 28.32581853866577 C 44.85592269897461 28.263465404510498 45.07097625732422 28.16963005065918 45.264333724975586 28.044923782348633 C 45.59788131713867 27.84808349609375 45.9228458404541 27.6115083694458 46.239346504211426 27.33428144454956 C 46.55537033081055 27.058277130126953 46.83622741699219 26.759043216705322 47.082275390625 26.437191009521484 C 47.18777561187744 26.29506254196167 47.30638885498047 26.16057538986206 47.43799591064453 26.035869121551514 C 47.5700798034668 25.911162853240967 47.69715690612793 25.776981353759766 47.820180892944336 25.63332462310791 C 48.03273105621338 25.35273551940918 48.23574447631836 25.08223295211792 48.44149971008301 24.807756900787354 C 48.39655780792236 25.010098934173584 48.358768463134766 25.213663578033447 48.334449768066406 25.419367790222168 C 48.273176193237305 25.93775463104248 48.299283027648926 26.433217525482178 48.41336631774902 26.906062126159668 C 48.50170040130615 27.272233963012695 48.68456745147705 27.591640949249268 48.95719909667969 27.867339611053467 C 49.30540943145752 28.533051013946533 50.00850582122803 28.688933849334717 50.69372081756592 28.650421619415283 C 51.050514221191406 28.678847312927246 51.40242004394531 28.643085956573486 51.74693489074707 28.52693796157837 C 52.06105136871338 28.420570850372314 52.367061614990234 28.280581951141357 52.66580009460449 28.114001274108887 C 57.3591890335083 25.775453090667725 60.309261322021484 19.114671230316162 61.003417015075684 18.342287063598633 C 61.17853546142578 18.214524269104004 61.35830307006836 18.11671543121338 61.46976375579834 18.132915019989014 C 61.64523983001709 18.16898202896118 61.812371253967285 18.231335163116455 61.97056198120117 18.32058572769165 C 62.12875270843506 18.410141944885254 62.29516887664795 18.454461574554443 62.47100257873535 18.454461574554443 C 62.5236930847168 18.454461574554443 62.59855651855469 18.445597648620605 62.69499683380127 18.42756414413452 C 62.7915563583374 18.410141944885254 62.87941360473633 18.4006667137146 62.9586877822876 18.4006667137146 C 63.037604331970215 18.4006667137146 63.09899711608887 18.41442108154297 63.143104553222656 18.441012859344482 C 63.18685436248779 18.467910289764404 63.182682037353516 18.5348482131958 63.12999153137207 18.641826629638672 C 63.077301025390625 18.78487205505371 62.94068717956543 18.936781406402588 62.721580505371094 19.097554683685303 C 62.5016393661499 19.25802230834961 62.33927631378174 19.39220380783081 62.23389530181885 19.498876571655273 C 61.61901378631592 20.124853134155273 61.00413227081299 20.785062789916992 60.38972759246826 21.481645107269287 C 59.77448844909668 22.178227424621582 59.2735710144043 22.927993297576904 58.88769054412842 23.73155403137207 C 58.746665954589844 23.999611377716064 58.61505889892578 24.285702228546143 58.49239253997803 24.58890962600708 C 58.36924934387207 24.892728328704834 58.26386833190918 25.19624137878418 58.176011085510254 25.499754428863525 C 58.08803462982178 25.803878784179688 58.03534412384033 26.111670970916748 58.01817798614502 26.42404794692993 C 58.00017738342285 26.73703622817993 58.03534412384033 27.053081035614014 58.12355899810791 27.37493324279785 C 58.19353485107422 27.642684936523438 58.312148094177246 27.86153221130371 58.47927951812744 28.030863761901855 C 58.64569568634033 28.201112270355225 58.83488082885742 28.330708980560303 59.04552364349365 28.41965389251709 C 59.256404876708984 28.5095157623291 59.48910140991211 28.56269931793213 59.74373245239258 28.580121517181396 C 59.9984827041626 28.59846067428589 60.24870300292969 28.589291095733643 60.4947509765625 28.553529739379883 C 61.21513271331787 28.410484313964844 61.852067947387695 28.11186170578003 62.40519905090332 27.656439304351807 C 62.9586877822876 27.200711250305176 63.463181495666504 26.70524835586548 63.9202299118042 26.169744968414307 C 64.13123035430908 25.91941547393799 64.34211158752441 25.655942916870117 64.55275440216064 25.379327297210693 C 64.74790000915527 25.12319040298462 64.93338966369629 24.87133264541626 65.11375331878662 24.6231427192688 C 65.0651159286499 24.848103046417236 65.02696895599365 25.069089889526367 65.00038528442383 25.285186290740967 C 64.9648609161377 25.570971488952637 64.95174789428711 25.879374980926514 64.96068859100342 26.20978546142578 C 64.96927165985107 26.54019594192505 65.01755142211914 26.857157707214355 65.10588550567627 27.160365104675293 C 65.19338512420654 27.464489459991455 65.32987976074219 27.736520290374756 65.51429653167725 27.977680206298828 C 65.69859409332275 28.21914577484131 65.94881439208984 28.393062114715576 66.26519584655762 28.49973487854004 C 66.26519584655762 28.49973487854004 66.31788635253906 28.52693796157837 66.31788635253906 28.52693796157837 C 66.72188663482666 28.63422203063965 67.14341068267822 28.629637241363525 67.58245849609375 28.513489246368408 C 68.02150630950928 28.39734125137329 68.41692352294922 28.231677532196045 68.76847171783447 28.01802635192871 C 69.45356750488281 27.62495708465576 70.06809139251709 27.13377332687378 70.61299705505371 26.544475078582764 C 70.73566341400146 26.401124000549316 70.85415744781494 26.26755380630493 70.96871757507324 26.14223623275757 C 71.08280086517334 26.018141269683838 71.20987796783447 25.892518043518066 71.3505449295044 25.76781177520752 C 71.42040157318115 25.696594715118408 71.4956226348877 25.61131763458252 71.57453918457031 25.513508796691895 C 71.65381336212158 25.41539430618286 71.73690223693848 25.356709003448486 71.8247594833374 25.339592456817627 C 71.84228324890137 25.428843021392822 71.83370018005371 25.518093585968018 71.79853343963623 25.607038497924805 C 71.7630090713501 25.696594715118408 71.72831916809082 25.785539627075195 71.69315242767334 25.874178886413574 C 71.60529518127441 26.26755380630493 71.60112285614014 26.66948699951172 71.68003940582275 27.080589771270752 C 71.75895595550537 27.49108123779297 71.94778347015381 27.83952522277832 72.24664115905762 28.12531042098999 C 72.56266498565674 28.446245670318604 72.91385555267334 28.59846067428589 73.30057048797607 28.580121517181396 C 73.6865701675415 28.56269931793213 74.07328510284424 28.459694385528564 74.46000003814697 28.272329330444336 C 74.8459997177124 28.0846586227417 75.2110185623169 27.843804359436035 75.55362606048584 27.54884958267212 C 75.89623355865479 27.25420045852661 76.18114376068115 26.982780933380127 76.40966796875 26.731840133666992 C 76.74333477020264 26.37483787536621 77.072829246521 26.013250827789307 77.39779376983643 25.64707899093628 C 77.72275829315186 25.28121280670166 78.04366970062256 24.91045618057251 78.35969352722168 24.535726070404053 C 78.49618816375732 24.378620624542236 78.62862968444824 24.222432136535645 78.75725650787354 24.066243648529053 C 78.59000587463379 24.581573963165283 78.47043895721436 25.09934949874878 78.39939022064209 25.620792865753174 C 78.30283069610596 26.326239109039307 78.36875343322754 26.964441776275635 78.59680080413818 27.535706520080566 C 78.82496738433838 28.107276916503906 79.32576560974121 28.464890480041504 80.09883785247803 28.60701894760132 C 80.45002841949463 28.642780303955078 80.77499294281006 28.63422203063965 81.07385063171387 28.580121517181396 C 81.49525547027588 28.5095157623291 81.87755966186523 28.379307746887207 82.22016716003418 28.19163703918457 C 82.56229782104492 28.004883289337158 82.8873815536499 27.78145122528076 83.19482231140137 27.522563457489014 C 83.50214385986328 27.263675689697266 83.79206085205078 26.986143112182617 84.06433486938477 26.692105293273926 C 84.33660888671875 26.3968448638916 84.60482978820801 26.098222255706787 84.86804389953613 25.794403553009033 C 84.95590114593506 25.705152988433838 85.03493690490723 25.620792865753174 85.10515117645264 25.539794921875 C 85.17512702941895 25.459408283233643 85.21923446655273 25.401334285736084 85.2372350692749 25.365572929382324 C 85.27204418182373 25.29466152191162 85.31615161895752 25.258288860321045 85.36884212493896 25.258288860321045 C 85.33331775665283 25.526651859283447 85.30721092224121 25.74060869216919 85.2895679473877 25.901687622070312 C 85.27204418182373 26.062460899353027 85.25440120697021 26.218955039978027 85.2372350692749 26.370558738708496 C 85.21923446655273 26.52277374267578 85.21065139770508 26.615997791290283 85.21065139770508 26.65206480026245 C 85.21065139770508 26.901782989501953 85.24581813812256 27.15211248397827 85.31615161895752 27.401525020599365 C 85.38612747192383 27.652160167694092 85.50915145874023 27.866422653198242 85.68486595153809 28.044923782348633 C 85.93055629730225 28.29555892944336 86.22941398620605 28.428823471069336 86.58096218109131 28.446245670318604 C 86.93227195739746 28.464890480041504 87.25675964355469 28.446245670318604 87.5560941696167 28.393062114715576 C 87.81930828094482 28.339267253875732 88.0605878829956 28.25460147857666 88.28040981292725 28.138453483581543 C 88.49999332427979 28.022305488586426 88.70610618591309 27.87559223175049 88.8998212814331 27.69647979736328 C 89.7075834274292 26.999897480010986 90.48077487945557 26.25441074371338 91.2186803817749 25.459408283233643 C 91.51110076904297 25.144586086273193 91.7912425994873 24.820594310760498 92.06983470916748 24.495991230010986 C 91.98722267150879 24.852993488311768 91.93477058410645 25.20999574661255 91.91688919067383 25.566386699676514 C 91.890305519104 26.093331813812256 91.9651689529419 26.58910036087036 92.14088344573975 27.053081035614014 C 92.3163595199585 27.51797866821289 92.65860939025879 27.901878356933594 93.16834831237793 28.20539140701294 C 93.53181743621826 28.423933029174805 93.9274730682373 28.503402709960938 94.3535270690918 28.54741668701172 C 94.75407028198242 28.64216899871826 95.20062828063965 28.885162830352783 95.60486698150635 28.495455741882324 C 95.60534381866455 28.495455741882324 95.60534381866455 28.495455741882324 95.60534381866455 28.495455741882324 C 95.60605907440186 28.495455741882324 95.60641670227051 28.495455741882324 95.60677433013916 28.495455741882324 C 95.78511142730713 28.495455741882324 95.9556999206543 28.47558832168579 96.1094799041748 28.434325218200684 C 96.15620994567871 28.421793460845947 96.20293998718262 28.432491302490234 96.25014686584473 28.418431282043457 C 96.42180824279785 28.36830425262451 96.5658130645752 28.330708980560303 96.67000198364258 28.29219675064087 C 96.6883602142334 28.28516674041748 96.70707607269287 28.28669500350952 96.72579193115234 28.279359340667725 C 96.73997783660889 28.27355194091797 96.75344848632812 28.26988410949707 96.76727676391602 28.264076709747314 C 96.82080173492432 28.24298667907715 96.85215377807617 28.230454921722412 96.85215377807617 28.230454921722412 C 96.87718772888184 28.21914577484131 96.90162563323975 28.206308364868164 96.92630195617676 28.19499921798706 C 97.54857444763184 27.92144012451172 98.12077903747559 27.579720497131348 98.63624000549316 27.160365104675293 C 98.64291572570801 27.154557704925537 98.64589595794678 27.149972915649414 98.65221405029297 27.144471168518066 C 102.43830108642578 24.31168270111084 104.81509590148926 19.02511501312256 105.42878532409668 18.341981410980225 C 105.60378456115723 18.214218616485596 105.7837905883789 18.11671543121338 105.89525127410889 18.132915019989014 C 106.07060813903809 18.16898202896118 106.23773956298828 18.231335163116455 106.39604949951172 18.32058572769165 C 106.55412101745605 18.410141944885254 106.7206563949585 18.454461574554443 106.89637088775635 18.454461574554443 C 106.94918060302734 18.454461574554443 107.02392482757568 18.445597648620605 107.12036514282227 18.42756414413452 C 107.2169246673584 18.410141944885254 107.30478191375732 18.4006667137146 107.3840560913086 18.4006667137146 C 107.46297264099121 18.4006667137146 107.52424621582031 18.41442108154297 107.56847286224365 18.441012859344482 C 107.61222267150879 18.467910289764404 107.60816955566406 18.5348482131958 107.55535984039307 18.641826629638672 C 107.50266933441162 18.78487205505371 107.36617469787598 18.936781406402588 107.14694881439209 19.097554683685303 C 106.9270076751709 19.25802230834961 106.76476383209229 19.39220380783081 106.65926361083984 19.498876571655273 C 106.04438209533691 20.124853134155273 105.42950057983398 20.785062789916992 104.81509590148926 21.481645107269287 C 104.19985675811768 22.178227424621582 103.69905853271484 22.927993297576904 103.31305885314941 23.73155403137207 C 103.17215347290039 23.999611377716064 103.04042720794678 24.285702228546143 102.91776084899902 24.58890962600708 C 102.79473686218262 24.892728328704834 102.68923664093018 25.19624137878418 102.6012601852417 25.499754428863525 C 102.51340293884277 25.803878784179688 102.46071243286133 26.111670970916748 102.44354629516602 26.42404794692993 C 102.42554569244385 26.73703622817993 102.46071243286133 27.053081035614014 102.54904651641846 27.37493324279785 C 102.61890316009521 27.642684936523438 102.73751640319824 27.86153221130371 102.90464782714844 28.030863761901855 C 103.07106399536133 28.201112270355225 103.26036834716797 28.330708980560303 103.47089195251465 28.41965389251709 C 103.68177318572998 28.5095157623291 103.9144697189331 28.56269931793213 104.16921997070312 28.580121517181396 C 104.4238510131836 28.59846067428589 104.67407131195068 28.589291095733643 104.9201192855835 28.553529739379883 C 105.64050102233887 28.410484313964844 106.27743625640869 28.11186170578003 106.83056735992432 27.656439304351807 C 107.3840560913086 27.200711250305176 107.88866901397705 26.70524835586548 108.34571743011475 26.169744968414307 C 108.55659866333008 25.91941547393799 108.76747989654541 25.655942916870117 108.97800350189209 25.379327297210693 C 109.18900394439697 25.103017330169678 109.39058685302734 24.829763889312744 109.58430194854736 24.562012195587158 C 109.83011150360107 24.258499145507812 110.07580184936523 23.950401306152344 110.32184982299805 23.63802433013916 C 110.56801700592041 23.32534170150757 110.81370735168457 23.00868558883667 111.05975532531738 22.686833381652832 C 111.11256504058838 22.633649826049805 111.21341609954834 22.508943557739258 111.36278533935547 22.311797618865967 C 111.5119161605835 22.1155686378479 111.64817237854004 21.905585289001465 111.77119636535645 21.68215322494507 C 111.8938627243042 21.459638118743896 111.96896457672119 21.253933906555176 111.99519062042236 21.06595754623413 C 112.02177429199219 20.878592491149902 111.92926788330078 20.776198863983154 111.71838665008545 20.75816535949707 Z M 96.58071422576904 20.892041206359863 C 96.67715454101562 20.696117877960205 96.78265476226807 20.50844717025757 96.89709568023682 20.32933473587036 C 97.01117897033691 20.151444911956787 97.0855655670166 20.03499126434326 97.12073230743408 19.981196403503418 C 97.36689949035645 19.605854988098145 97.62153053283691 19.245184898376465 97.88522148132324 18.896435260772705 C 98.14855480194092 18.54829692840576 98.4208288192749 18.195573806762695 98.7020435333252 17.837960243225098 C 98.78954315185547 17.73067617416382 98.8863410949707 17.62002992630005 98.99184131622314 17.50388193130493 C 99.09698390960693 17.387733936309814 99.20248413085938 17.267001152038574 99.30786514282227 17.14198923110962 C 99.44817447662354 16.99924945831299 99.62436580657959 16.825027465820312 99.83488941192627 16.619323253631592 C 100.04588985443115 16.414535999298096 100.25641345977783 16.28463363647461 100.46729469299316 16.231450080871582 C 100.62548542022705 16.195688724517822 100.75268173217773 16.244287490844727 100.84947967529297 16.378468990325928 C 100.94568157196045 16.51234483718872 100.98525905609131 16.650805473327637 100.968092918396 16.793545246124268 C 100.95009231567383 17.151158809661865 100.84506893157959 17.49929714202881 100.65171146392822 17.837960243225098 C 100.45835399627686 18.17784595489502 100.25641345977783 18.481664657592773 100.04588985443115 18.74911069869995 C 99.69422245025635 19.21370267868042 99.29475212097168 19.660261154174805 98.84676361083984 20.088480472564697 C 98.39865589141846 20.517005443572998 97.92003059387207 20.883177280426025 97.41053009033203 21.187301635742188 C 97.3754825592041 21.204418182373047 97.27451229095459 21.2585186958313 97.1076192855835 21.347463607788086 C 96.9404878616333 21.437325477600098 96.78706550598145 21.49967861175537 96.64651775360107 21.535134315490723 C 96.47080326080322 21.57120132446289 96.39176750183105 21.52168560028076 96.40941047668457 21.38780975341797 C 96.42657661437988 21.253933906555176 96.48379707336426 21.089187145233154 96.58071422576904 20.892041206359863 Z M 20.81140899658203 14.409454822540283 C 21.144956588745117 13.784700870513916 21.465510368347168 13.150471687316895 21.772831916809082 12.507378578186035 C 22.080272674560547 11.864591121673584 22.39224338531494 11.23066759109497 22.708624839782715 10.605913639068604 C 23.077458381652832 9.855230808258057 23.46333885192871 9.136641502380371 23.86769676208496 8.448617458343506 C 24.271577835083008 7.762121677398682 24.693459510803223 7.069207191467285 25.13250732421875 6.372930526733398 C 25.483817100524902 5.819699287414551 25.85288906097412 5.274720668792725 26.239246368408203 4.7389116287231445 C 26.625603675842285 4.2031025886535645 27.091115951538086 3.74798583984375 27.635663986206055 3.3729500770568848 C 27.741283416748047 3.301121711730957 27.921051025390625 3.189558506011963 28.176158905029297 3.037649154663086 C 28.430551528930664 2.8863511085510254 28.694242477416992 2.761033535003662 28.966397285461426 2.6626133918762207 C 29.23867130279541 2.5644989013671875 29.48901081085205 2.524458408355713 29.717415809631348 2.542491912841797 C 29.945582389831543 2.5599141120910645 30.10377311706543 2.685537338256836 30.191630363464355 2.917527675628662 C 30.31429672241211 3.2384629249572754 30.340880393981934 3.600355625152588 30.271023750305176 4.001983165740967 C 30.200690269470215 4.403916358947754 30.077189445495605 4.801876068115234 29.901832580566406 5.194028377532959 C 29.725998878479004 5.587403297424316 29.53299903869629 5.962439060211182 29.322117805480957 6.319441318511963 C 29.111594200134277 6.6770548820495605 28.917879104614258 6.988820552825928 28.742403030395508 7.256572246551514 C 28.2681884765625 7.989527225494385 27.749747276306152 8.708422183990479 27.18803310394287 9.413257122039795 C 26.625603675842285 10.119314670562744 26.019662857055664 10.792973041534424 25.369614601135254 11.435760498046875 C 24.719685554504395 12.079159259796143 24.038881301879883 12.672736644744873 23.327678680419922 13.217409610748291 C 22.61623764038086 13.762082576751709 21.873921394348145 14.231564998626709 21.10120677947998 14.623717308044434 C 20.960182189941406 14.694934368133545 20.855039596557617 14.726722240447998 20.784825325012207 14.716941356658936 C 20.714491844177246 14.708994388580322 20.723074913024902 14.605989456176758 20.81140899658203 14.409454822540283 Z M 8.584827423095703 26.14223623275757 C 8.33877944946289 26.500155448913574 8.009284973144531 26.80366849899292 7.596701622009277 27.053081035614014 C 7.183879852294922 27.303410530090332 6.740182876586914 27.473353385925293 6.265968322753906 27.56260395050049 C 5.774230003356934 27.652160167694092 5.291074752807617 27.652160167694092 4.816740989685059 27.56260395050049 C 4.342526435852051 27.473353385925293 3.9382877349853516 27.250226974487305 3.604620933532715 26.892613410949707 C 3.4467878341674805 26.731840133666992 3.341287612915039 26.513298511505127 3.2885971069335938 26.236682891845703 C 3.2359066009521484 25.96006727218628 3.279656410217285 25.723186492919922 3.420323371887207 25.526651859283447 C 3.5257043838500977 25.365572929382324 3.674954414367676 25.241477966308594 3.868311882019043 25.151310443878174 C 4.061311721801758 25.062365531921387 4.267782211303711 25.000012397766113 4.487604141235352 24.96455669403076 C 4.706830024719238 24.928184032440186 4.926294326782227 24.919320106506348 5.146235466003418 24.93735361099243 C 5.365818977355957 24.955387115478516 5.563348770141602 24.9734206199646 5.739063262939453 24.990842819213867 C 5.8445634841918945 25.00887632369995 6.07273006439209 25.044026374816895 6.424278259277344 25.098126888275146 C 6.7753496170043945 25.151310443878174 7.131070137023926 25.222833156585693 7.491320610046387 25.31208372116089 C 7.851451873779297 25.401334285736084 8.154362678527832 25.518093585968018 8.400410652160645 25.66052770614624 C 8.646100997924805 25.803878784179688 8.707493782043457 25.964040756225586 8.584827423095703 26.14223623275757 Z M 41.80738353729248 18.936781406402588 C 41.80738353729248 18.972848415374756 41.734785079956055 19.008304119110107 41.71761894226074 19.044065475463867 C 41.55978584289551 19.722614288330078 41.40493297576904 20.414306163787842 41.31707572937012 21.119446754455566 C 41.22921848297119 21.825198650360107 41.1693754196167 22.53553533554077 41.1693754196167 23.249539852142334 C 41.1693754196167 23.463802337646484 41.15292453765869 23.674091339111328 41.13575839996338 23.879184246063232 C 41.11775779724121 24.084277153015137 41.04337120056152 24.285702228546143 40.92058563232422 24.48193120956421 C 40.81520462036133 24.678465843200684 40.68538570404053 24.85268783569336 40.53613567352295 25.004291534423828 C 40.38688564300537 25.156200885772705 40.241092681884766 25.30321979522705 40.100783348083496 25.44626522064209 C 39.95987796783447 25.58931064605713 39.81432342529297 25.732356071472168 39.66507339477539 25.874178886413574 C 39.51594257354736 26.018141269683838 39.35322189331055 26.15201711654663 39.17786502838135 26.277029037475586 C 39.12505531311035 26.31217908859253 39.03684043884277 26.37483787536621 38.91417407989502 26.463782787322998 C 38.79067325592041 26.55364465713501 38.667649269104004 26.62516736984253 38.54498291015625 26.678350925445557 C 38.421958923339844 26.731840133666992 38.31204795837402 26.749873638153076 38.21584606170654 26.731840133666992 C 38.11904811859131 26.714417934417725 38.06170845031738 26.62516736984253 38.04454231262207 26.463782787322998 C 38.04454231262207 26.37483787536621 38.05324459075928 26.289560794830322 38.07076835632324 26.20978546142578 C 38.087934494018555 26.129093170166016 38.087934494018555 26.04503870010376 38.07076835632324 25.955176830291748 C 38.03524398803711 25.794403553009033 37.96085739135742 25.63821506500244 37.846774101257324 25.486305713653564 C 37.732333183288574 25.334396362304688 37.587493896484375 25.249730587005615 37.412137031555176 25.23200273513794 C 37.29698085784912 25.218859672546387 37.1788444519043 25.22527837753296 37.05915832519531 25.24025535583496 C 37.083834648132324 25.210301399230957 37.11065673828125 25.181875705718994 37.13533306121826 25.151310443878174 C 37.512749671936035 24.68732976913452 37.886351585388184 24.22304344177246 38.2551851272583 23.7587571144104 C 38.448184967041016 23.526461124420166 38.6284294128418 23.30302906036377 38.79520320892334 23.089072227478027 C 38.96197700500488 22.87450408935547 39.11575698852539 22.642513751983643 39.25642395019531 22.392489910125732 C 39.30911445617676 22.320967197418213 39.37479877471924 22.23141098022461 39.45419216156006 22.12412691116333 C 39.533108711242676 22.017454147338867 39.603084564208984 21.90130615234375 39.66483497619629 21.77568292617798 C 39.68307399749756 21.73808765411377 39.69582939147949 21.702631950378418 39.710015296936035 21.665342330932617 C 39.87082862854004 21.44527244567871 40.01113796234131 21.25637912750244 40.12593650817871 21.106609344482422 C 40.30129337310791 20.874619007110596 40.4594841003418 20.64232301712036 40.60050868988037 20.40972137451172 C 40.74069881439209 20.17834234237671 40.88100814819336 19.93687677383423 41.022032737731934 19.68685293197632 C 41.10953235626221 19.54380750656128 41.26510047912598 19.387924671173096 41.362375259399414 19.217676162719727 C 41.45810031890869 19.048344612121582 41.80738353729248 18.919053554534912 41.80738353729248 18.829802989959717 C 41.80738353729248 18.829802989959717 41.80738353729248 18.936781406402588 41.80738353729248 18.936781406402588 Z M 72.69439125061035 22.405938625335693 C 72.18489074707031 23.146840572357178 71.64904499053955 23.875210762023926 71.08721160888672 24.58890962600708 C 70.75330638885498 25.000012397766113 70.39758586883545 25.38849687576294 70.01981163024902 25.75436305999756 C 69.64215660095215 26.120229244232178 69.21646022796631 26.419768810272217 68.74188804626465 26.65206480026245 C 68.46067333221436 26.777076721191406 68.20592308044434 26.816505908966064 67.97775650024414 26.772186279296875 C 67.7492322921753 26.727866649627686 67.56493473052979 26.55364465713501 67.42462539672852 26.249825954437256 C 67.33641052246094 26.071630477905273 67.30613136291504 25.879374980926514 67.33223819732666 25.6739764213562 C 67.35882186889648 25.468883514404297 67.4067440032959 25.258288860321045 67.47743511199951 25.044026374816895 C 67.54729175567627 24.829763889312744 67.63073825836182 24.625282287597656 67.72753620147705 24.428442001342773 C 67.82361888885498 24.2319073677063 67.90754222869873 24.0531005859375 67.97775650024414 23.892327308654785 C 68.17075634002686 23.517597198486328 68.36423301696777 23.1514253616333 68.55747127532959 22.79442310333252 C 68.7504711151123 22.437726497650146 68.96147155761719 22.088976860046387 69.18987655639648 21.74970245361328 C 69.41804313659668 21.410122394561768 69.63798427581787 21.070542335510254 69.84850788116455 20.731573581695557 C 70.05950832366943 20.39229917526245 70.28767490386963 20.061888694763184 70.53372287750244 19.739730834960938 C 70.95560455322266 19.15073823928833 71.41634845733643 18.54340648651123 71.91714668273926 17.918652534484863 C 72.41794490814209 17.29328727722168 72.9841890335083 16.803020477294922 73.6165943145752 16.445101261138916 C 73.84476089477539 16.320700645446777 74.11739253997803 16.222280502319336 74.43341636657715 16.151063442230225 C 74.74979782104492 16.079235076904297 75.00419044494629 16.168485641479492 75.19790554046631 16.418203830718994 C 75.35561943054199 16.63307762145996 75.41260147094727 16.873931884765625 75.36920928955078 17.14198923110962 C 75.32510185241699 17.409435272216797 75.26776218414307 17.660070419311523 75.19790554046631 17.892366409301758 C 75.05688095092773 18.28482437133789 74.89010715484619 18.660165786743164 74.69710731506348 19.016862392425537 C 74.50374984741211 19.374475955963135 74.31039237976074 19.731783866882324 74.11739253997803 20.088480472564697 C 73.67798709869385 20.892041206359863 73.20377254486084 21.6647310256958 72.69439125061035 22.405938625335693 Z M 87.27929019927979 19.90111541748047 C 87.12968254089355 20.168867111206055 86.99354553222656 20.40972137451172 86.87087917327881 20.624289512634277 C 86.46652126312256 21.374361038208008 86.01841354370117 22.088976860046387 85.52703285217285 22.767525672912598 C 85.03493690490723 23.446380138397217 84.52555561065674 24.106589794158936 83.99853134155273 24.749988555908203 C 83.61217403411865 25.214580535888672 83.21234607696533 25.60795545578003 82.79988193511963 26.04503870010376 C 82.38658332824707 26.483038902282715 81.89925575256348 26.93815565109253 81.33718395233154 26.93815565109253 C 81.33718395233154 26.93815565109253 81.31095790863037 26.93815565109253 81.31095790863037 26.93815565109253 C 80.90659999847412 27.32786273956299 80.54241561889648 27.125520706176758 80.2173318862915 26.90239429473877 C 79.89200973510742 26.678962230682373 79.75623035430908 26.355581760406494 79.80892086029053 25.87295627593994 C 79.86173057556152 25.19440746307373 80.05020046234131 24.574238300323486 80.37564182281494 23.98494005203247 C 80.70024871826172 23.395336151123047 81.04726696014404 22.849746227264404 81.41645812988281 22.331359386444092 C 81.83798217773438 21.742672443389893 82.26355934143066 21.161015510559082 82.69438171386719 20.580275535583496 C 83.1244888305664 20.000758171081543 83.58559036254883 19.43499517440796 84.077805519104 18.880846977233887 C 84.25328159332275 18.68461799621582 84.46380519866943 18.448959827423096 84.70985317230225 18.17264986038208 C 84.95590114593506 17.895728588104248 85.21923446655273 17.6331729888916 85.50044918060303 17.382537841796875 C 85.78142547607422 17.132513999938965 86.0757532119751 16.922836303710938 86.38319396972656 16.752893447875977 C 86.69051551818848 16.583561897277832 86.99354553222656 16.507760047912598 87.29240322113037 16.52579355239868 C 87.5032844543457 16.561249256134033 87.68317127227783 16.66394853591919 87.83242130279541 16.833280086517334 C 87.98167133331299 17.00383424758911 88.06499862670898 17.186614513397217 88.08299922943115 17.382843494415283 C 88.10016536712646 17.650900840759277 88.06952857971191 17.9275164604187 87.9906120300293 18.21330165863037 C 87.91169548034668 18.49908685684204 87.81036758422852 18.78487205505371 87.68758201599121 19.07096290588379 C 87.5645580291748 19.35644245147705 87.42806339263916 19.633058071136475 87.27929019927979 19.90111541748047 Z"/></g></svg>