<svg version="1.1" xmlns="http://www.w3.org/2000/svg" xmlns:xlink="http://www.w3.org/1999/xlink" width="18" height="19"><defs/><g><path fill="rgb(187,156,102)" stroke="none" paint-order="stroke fill markers" fill-rule="evenodd" d=" M 11.66866683959961 3.4952282905578613 C 11.796220779418945 4.001389026641846 11.808976173400879 4.043569087982178 11.7970552444458 4.563484191894531 C 11.79240608215332 4.7639923095703125 11.675580978393555 5.690731048583984 11.707290649414062 5.974987983703613 C 11.733397483825684 6.209423542022705 11.792763710021973 6.227762699127197 11.886462211608887 6.420935153961182 C 12.049898147583008 6.757153034210205 11.9951810836792 7.220828056335449 11.932596206665039 7.560102462768555 C 11.898263931274414 7.745327949523926 11.825665473937988 8.009411811828613 11.715635299682617 8.160709857940674 C 11.594280242919922 8.327596187591553 11.351212501525879 8.328818798065186 11.243804931640625 8.523519515991211 C 11.089190483093262 8.803802967071533 11.176570892333984 9.197483539581299 11.078938484191895 9.50007963180542 C 10.968073844909668 9.843327522277832 10.685905456542969 9.86747407913208 10.664566993713379 10.316783428192139 C 10.802968978881836 10.336039543151855 10.94089412689209 10.35560131072998 11.078938484191895 10.375163078308105 C 11.217459678649902 10.66522741317749 11.471137046813965 11.249329566955566 11.730059623718262 11.425385475158691 C 11.947020530700684 11.48345947265625 12.164100646972656 11.541839122772217 12.380942344665527 11.600218772888184 C 13.141378402709961 11.907399654388428 13.986214637756348 12.275099754333496 14.748200416564941 12.592061519622803 C 15.441998481750488 12.880597591400146 16.272768020629883 12.983296871185303 16.523584365844727 13.700663566589355 C 16.523584365844727 14.187568187713623 16.570195198059082 15.337738990783691 16.55743980407715 15.97594165802002 C 16.55743980407715 15.97594165802002 16.559704780578613 17.99997329711914 9.00004768371582 17.99997329711914 C 1.4405097961425781 17.99997329711914 1.4426555633544922 15.97594165802002 1.4426555633544922 15.97594165802002 C 1.4299001693725586 15.337738990783691 1.476511001586914 14.187568187713623 1.476511001586914 13.700663566589355 C 1.7273273468017578 12.983296871185303 2.5579776763916016 12.880597591400146 3.251894950866699 12.592061519622803 C 4.013880729675293 12.275099754333496 4.85871696472168 11.907399654388428 5.6190338134765625 11.600218772888184 C 5.835994720458984 11.541839122772217 6.053194046020508 11.48345947265625 6.269916534423828 11.425385475158691 C 6.528958320617676 11.249329566955566 6.782635688781738 10.66522741317749 6.921156883239746 10.375163078308105 C 6.921156883239746 10.375163078308105 7.229193687438965 10.30119514465332 7.229193687438965 10.30119514465332 C 7.159217834472656 9.917906761169434 6.918415069580078 9.88795280456543 6.818160057067871 9.616533279418945 C 6.778820991516113 9.208487033843994 6.739362716674805 8.799523830413818 6.699785232543945 8.391477584838867 C 6.701692581176758 8.410428047180176 6.416543960571289 8.340127944946289 6.379112243652344 8.317203998565674 C 5.97725772857666 8.068708419799805 5.969032287597656 7.060360431671143 5.930289268493652 6.641310691833496 C 5.912646293640137 6.449666500091553 6.183132171630859 6.292255401611328 6.107911109924316 5.9407548904418945 C 5.6675519943237305 3.883101463317871 6.298407554626465 2.919990062713623 7.296070098876953 2.600888729095459 C 7.988556861877441 2.324273109436035 9.281381607055664 1.8113880157470703 10.487183570861816 2.542509078979492 C 10.487183570861816 2.542509078979492 10.786398887634277 2.815762519836426 10.786398887634277 2.815762519836426 C 10.786398887634277 2.815762519836426 11.27062702178955 2.8982887268066406 11.27062702178955 2.8982887268066406 C 11.513694763183594 3.0364437103271484 11.66866683959961 3.4952282905578613 11.66866683959961 3.4952282905578613 Z"/></g></svg>