<svg version="1.1" xmlns="http://www.w3.org/2000/svg" xmlns:xlink="http://www.w3.org/1999/xlink" width="32" height="36"><defs/><g><path fill="rgb(187,156,102)" stroke="none" paint-order="stroke fill markers" fill-rule="evenodd" d=" M 2.29351806640625 11.212653636932373 C 2.3842363357543945 11.138074398040771 2.478769302368164 11.101090431213379 2.5765209197998047 11.09589433670044 C 2.4637489318847656 10.505373477935791 2.5804548263549805 10.115055084228516 2.8589277267456055 9.88642692565918 C 3.2080917358398438 9.599419116973877 3.62103271484375 9.857695579528809 4.218390464782715 10.537467002868652 C 4.218390464782715 10.537467002868652 4.236867904663086 10.52249002456665 4.236867904663086 10.52249002456665 C 4.231503486633301 10.527074813842773 4.223039627075195 10.523406982421875 4.2474775314331055 10.553972244262695 C 4.432967185974121 10.786573886871338 4.695704460144043 10.831504821777344 4.928043365478516 10.640777587890625 C 5.087545394897461 10.509346961975098 5.145838737487793 10.260240077972412 5.040815353393555 10.129420757293701 C 5.040815353393555 10.129420757293701 4.808476448059082 9.839967727661133 4.808476448059082 9.839967727661133 C 4.469683647155762 9.418167114257812 4.790475845336914 8.897029399871826 5.211880683898926 8.550724983215332 C 5.211880683898926 8.550724983215332 10.163834571838379 4.48218297958374 10.163834571838379 4.48218297958374 C 10.584524154663086 4.136795520782471 10.806849479675293 4.214431285858154 11.144807815551758 4.635009288787842 C 11.144807815551758 4.635009288787842 11.432698249816895 4.993845462799072 11.432698249816895 4.993845462799072 C 11.505892753601074 5.084929943084717 11.867454528808594 4.886255741119385 11.99667739868164 4.780194282531738 C 12.228301048278809 4.589772701263428 12.377551078796387 4.25936222076416 12.190630912780762 4.026149272918701 C 12.166789054870605 3.9968066215515137 12.232950210571289 3.9527926445007324 12.2268705368042 3.957988739013672 C 12.2268705368042 3.957988739013672 12.244036674499512 3.9439287185668945 12.244036674499512 3.9439287185668945 C 11.708548545837402 3.213113307952881 11.541655540466309 2.7524948120117188 11.891534805297852 2.4648756980895996 C 12.170007705688477 2.2359418869018555 12.596657752990723 2.2331910133361816 13.144782066345215 2.4648756980895996 C 13.170173645019531 2.368900775909424 13.21261215209961 2.268341064453125 13.302734375 2.193150520324707 C 14.040401458740234 1.5870413780212402 15.893033027648926 2.659270763397217 17.448833465576172 4.596802711486816 C 19.004395484924316 6.533417701721191 19.664695739746094 8.590459823608398 18.92690944671631 9.196568965911865 C 18.836191177368164 9.271148204803467 18.740585327148438 9.306603908538818 18.6430721282959 9.312411308288574 C 18.75477123260498 9.902932167053223 18.695524215698242 10.363550662994385 18.416455268859863 10.593401432037354 C 18.05417823791504 10.890495777130127 17.644813537597656 10.62641191482544 17.05317783355713 9.942055702209473 C 17.05317783355713 9.942055702209473 17.037203788757324 9.955504417419434 17.037203788757324 9.955504417419434 C 16.997507095336914 9.987903594970703 16.431978225708008 9.885509967803955 16.229799270629883 10.051784992218018 C 16.10129165649414 10.157540798187256 15.826871871948242 10.465638637542725 15.899589538574219 10.556111812591553 C 15.899589538574219 10.556111812591553 16.20178508758545 10.932675838470459 16.20178508758545 10.932675838470459 C 16.403964042663574 11.18422794342041 16.581466674804688 11.405826091766357 16.505053520202637 11.700475215911865 C 16.38667869567871 11.231604099273682 14.968088150024414 9.310883045196533 13.656905174255371 7.67839241027832 C 12.207677841186523 5.873513698577881 11.1207275390625 4.787224292755127 11.1207275390625 4.787224292755127 C 11.010697364807129 5.009739398956299 12.280157089233398 6.526693344116211 13.379981994628906 7.896322727203369 C 14.443209648132324 9.220104217529297 16.326239585876465 11.76252269744873 16.633084297180176 11.772303581237793 C 16.573241233825684 11.927880764007568 16.531875610351562 12.1265549659729 16.39430809020996 12.239340782165527 C 16.39430809020996 12.239340782165527 15.441468238830566 13.022422790527344 15.441468238830566 13.022422790527344 C 15.54732608795166 12.935006141662598 15.688827514648438 12.936840057373047 15.773466110229492 13.041984558105469 C 15.857866287231445 13.147434711456299 15.829852104187012 13.288646221160889 15.724709510803223 13.374840259552002 C 15.724709510803223 13.374840259552002 15.612533569335938 13.46714735031128 15.612533569335938 13.46714735031128 C 15.68465518951416 13.407850742340088 15.98518180847168 13.699137687683105 16.147664070129395 13.901785373687744 C 16.88998031616211 14.82607889175415 17.262747764587402 16.009260177612305 17.263582229614258 16.902682781219482 C 17.14651870727539 16.69545030593872 16.88998031616211 16.191734790802002 16.73000144958496 15.479564189910889 C 16.513517379760742 14.521954536437988 15.895536422729492 13.357418060302734 15.451004981994629 13.723284244537354 C 15.006711959838867 14.088233470916748 16.07828426361084 14.733466148376465 16.338041305541992 15.549864292144775 C 16.55130672454834 16.21588134765625 17.064741134643555 16.754441261291504 17.246177673339844 16.930802822113037 C 17.24582004547119 17.00691032409668 17.24105167388916 17.080878257751465 17.233899116516113 17.152400970458984 C 17.74483013153076 16.883426666259766 18.194368362426758 16.8213791847229 18.36698341369629 17.036252975463867 C 18.49394130706787 17.194581031799316 18.444588661193848 17.4696683883667 18.265893936157227 17.7826566696167 C 18.70446491241455 17.824225425720215 19.126227378845215 18.035431385040283 19.4215087890625 18.40343713760376 C 19.927433013916016 19.031553268432617 20.520737648010254 20.884725093841553 21.9619779586792 22.679211616516113 C 23.447206497192383 24.529326915740967 28.108885765075684 29.2217059135437 29.018214225769043 30.353843212127686 C 30.05998420715332 31.6510329246521 30.321410179138184 33.182658195495605 29.601386070251465 33.77379035949707 C 29.601386070251465 33.77379035949707 29.57003402709961 33.79640865325928 29.57003402709961 33.79640865325928 C 28.850367546081543 34.387235164642334 27.419856071472168 33.81260824203491 26.37796688079834 32.51480722427368 C 25.468996047973633 31.382975578308105 21.880319595336914 25.801758766174316 20.39521026611328 23.95225477218628 C 18.95325469970703 22.158073902130127 17.29004669189453 21.19832468032837 16.78495693206787 20.569291591644287 C 16.489794731140137 20.201897144317627 16.371896743774414 19.740972995758057 16.42148780822754 19.29808235168457 C 16.081741333007812 19.410868167877197 15.804698944091797 19.402921199798584 15.677979469299316 19.244898796081543 C 15.505602836608887 19.030330657958984 15.65711784362793 18.598137855529785 16.022613525390625 18.14668893814087 C 15.125802040100098 18.05132532119751 13.920476913452148 17.42718267440796 13.100197792053223 16.405691623687744 C 12.937596321105957 16.203349590301514 12.716939926147461 15.846041679382324 12.789061546325684 15.786745071411133 C 12.789061546325684 15.786745071411133 12.67700481414795 15.878746509552002 12.67700481414795 15.878746509552002 C 12.571146965026855 15.96585750579834 12.415221214294434 15.946601390838623 12.331297874450684 15.84176254272461 C 12.246659278869629 15.73631238937378 12.261083602905273 15.57798433303833 12.366345405578613 15.491790294647217 C 12.366345405578613 15.491790294647217 11.361172676086426 16.317052364349365 11.361172676086426 16.317052364349365 C 10.940483093261719 16.662745475769043 10.204246520996094 16.559129238128662 9.865811347961426 16.137939929962158 C 9.865811347961426 16.137939929962158 9.620240211486816 15.831981658935547 9.620240211486816 15.831981658935547 C 9.515693664550781 15.701773643493652 9.293964385986328 15.749149799346924 9.135177612304688 15.879357814788818 C 8.933117866516113 16.045327186584473 9.091547012329102 16.483633041381836 9.050896644592285 16.51694917678833 C 9.050896644592285 16.51694917678833 9.035161018371582 16.530092239379883 9.035161018371582 16.530092239379883 C 9.576728820800781 17.255711555480957 9.746959686279297 17.713579177856445 9.383967399597168 18.011590480804443 C 9.105613708496094 18.24021863937378 8.649638175964355 18.208125114440918 8.100798606872559 17.975217819213867 C 8.0767183303833 18.072109699249268 8.019140243530273 18.154635906219482 7.92854118347168 18.229520797729492 C 7.190874099731445 18.83562994003296 5.331805229187012 17.75545358657837 3.7760047912597656 15.818227291107178 C 2.2202043533325195 13.881000995635986 1.5558509826660156 11.81876277923584 2.29351806640625 11.212653636932373 Z M 19.063761711120605 7.789649963378906 C 19.063761711120605 7.789649963378906 18.120458602905273 6.0565996170043945 16.951849937438965 4.5365891456604 C 15.783122062683105 3.0153560638427734 14.657905578613281 2.3034911155700684 14.657905578613281 2.3034911155700684 C 16.753366470336914 4.2236008644104 19.063761711120605 7.789649963378906 19.063761711120605 7.789649963378906 Z M 14.24424934387207 4.0417375564575195 C 14.62405014038086 3.7828497886657715 15.084555625915527 4.539951324462891 16.193321228027344 5.595064163208008 C 16.193321228027344 5.595064163208008 16.193321228027344 5.595064163208008 16.193321228027344 5.595064163208008 C 17.53239917755127 7.285017490386963 18.859556198120117 9.138189315795898 18.841317176818848 9.054134845733643 C 18.82176685333252 8.964884281158447 17.527392387390137 6.596993446350098 16.274860382080078 5.038776397705078 C 15.024474143981934 3.479948043823242 13.54699420928955 2.1335482597351074 13.54699420928955 2.1335482597351074 C 13.471177101135254 2.1399669647216797 13.461878776550293 2.1968183517456055 13.505032539367676 2.294015884399414 C 13.385346412658691 2.280261516571045 13.363531112670898 2.422084331512451 13.271978378295898 2.544956684112549 C 13.053467750549316 2.8362436294555664 13.065031051635742 3.9289517402648926 13.065031051635742 3.9289517402648926 C 13.24467945098877 4.546370029449463 13.864806175231934 4.300930976867676 14.24424934387207 4.0417375564575195 Z M 14.059832572937012 5.724660873413086 C 14.147809028625488 5.652221202850342 13.966730117797852 5.280241966247559 13.65666675567627 4.894202709197998 C 13.346126556396484 4.507552146911621 13.023903846740723 4.252943515777588 12.935927391052246 4.325077533721924 C 12.84795093536377 4.39721155166626 13.028553009033203 4.768579483032227 13.338973999023438 5.155535697937012 C 13.649394989013672 5.5418806076049805 13.972213745117188 5.795877933502197 14.059832572937012 5.724660873413086 Z M 13.283780097961426 6.071270942687988 C 13.42492389678955 5.956039905548096 13.375332832336426 5.659556865692139 13.174226760864258 5.40922737121582 C 12.97323989868164 5.158592224121094 12.69691276550293 5.048862934112549 12.555888175964355 5.165010929107666 C 12.415698051452637 5.27993631362915 12.465169906616211 5.575808048248291 12.66651439666748 5.826748847961426 C 12.867620468139648 6.077383995056152 13.143828392028809 6.187113285064697 13.283780097961426 6.071270942687988 Z M 18.093398094177246 17.346490383148193 C 17.943313598632812 17.157902717590332 17.731597900390625 17.079349994659424 17.621448516845703 17.17043447494507 C 17.511418342590332 17.260907649993896 17.543962478637695 17.485867977142334 17.694762229919434 17.67384433746338 C 17.845681190490723 17.861820697784424 18.056920051574707 17.940067768096924 18.16718864440918 17.850205898284912 C 18.2768611907959 17.759427070617676 18.244078636169434 17.533855438232422 18.093398094177246 17.346490383148193 Z M 19.401362419128418 20.57754421234131 C 20.78264045715332 22.134232997894287 22.167613983154297 23.398717880249023 25.252273559570312 27.568125247955322 C 28.336337089538574 31.738143920898438 28.9810209274292 32.555153369903564 29.38108730316162 32.22627115249634 C 29.781868934631348 31.89738893508911 28.363993644714355 30.105958938598633 27.405312538146973 28.940505504608154 C 26.445677757263184 27.775357723236084 25.731375694274902 27.38626194000244 23.329785346984863 24.554696083068848 C 20.928075790405273 21.72404718399048 19.48266315460205 20.035316467285156 19.236257553100586 19.181628704071045 C 18.990567207336426 18.328246593475342 18.741896629333496 18.110010623931885 18.4066801071167 18.14852285385132 C 17.96274471282959 18.198344230651855 18.018773078918457 19.020549774169922 19.401362419128418 20.57754421234131 Z M 11.333277702331543 15.56606388092041 C 11.333277702331543 15.56606388092041 11.54177474975586 15.710943222045898 13.686826705932617 13.948855876922607 C 15.78836727142334 12.222529888153076 15.50309944152832 12.140614986419678 15.50309944152832 12.140614986419678 C 15.22522258758545 12.203885078430176 14.85758113861084 12.168735027313232 14.666727066040039 11.93093729019165 C 14.398506164550781 11.597164630889893 10.184815406799316 6.3500261306762695 9.916236877441406 6.015642166137695 C 9.669354438781738 5.707544326782227 9.816339492797852 5.171429634094238 10.081341743469238 4.88870096206665 C 10.052254676818848 4.907957077026367 10.077765464782715 4.878003120422363 10.051301002502441 4.900315761566162 C 10.051301002502441 4.900315761566162 9.877851486206055 4.725788116455078 7.726958274841309 6.493071556091309 C 5.469968795776367 8.347771644592285 5.643060684204102 8.521993637084961 5.643060684204102 8.521993637084961 C 5.616357803344727 8.54430627822876 5.513360977172852 8.637530326843262 5.4893999099731445 8.66167688369751 C 5.817940711975098 8.456889629364014 6.149819374084473 8.600240707397461 6.396701812744141 8.908032894134521 C 6.665280342102051 9.242416858673096 10.878494262695312 14.488944053649902 11.147072792053223 14.823328018188477 C 11.337688446044922 15.060208797454834 11.452367782592773 15.303202629089355 11.333277702331543 15.56606388092041 Z M 11.127760887145996 16.210379600524902 C 11.238506317138672 15.987253189086914 9.98394775390625 14.457461833953857 8.884361267089844 13.088443756103516 C 7.784893989562988 11.719731330871582 5.86860466003418 9.102733612060547 5.66118049621582 9.2723708152771 C 5.454948425292969 9.441702365875244 7.11219596862793 11.53817367553711 8.561542510986328 13.342441082000732 C 10.011127471923828 15.148236751556396 11.127760887145996 16.210379600524902 11.127760887145996 16.210379600524902 Z M 6.315877914428711 11.79675579071045 C 6.447127342224121 11.688860416412354 6.391218185424805 11.397879123687744 6.189754486083984 11.148772239685059 C 5.988529205322266 10.897525787353516 5.718997001647949 10.781989097595215 5.587747573852539 10.890190124511719 C 5.456378936767578 10.997779846191406 5.512764930725098 11.288455486297607 5.713751792907715 11.538784980773926 C 5.914738655090332 11.789114475250244 6.18450927734375 11.904956817626953 6.315877914428711 11.79675579071045 Z M 4.980376243591309 13.184418678283691 C 4.890134811401367 12.94142484664917 3.8866310119628906 11.812344074249268 4.088809967041016 11.593802452087402 C 4.202297210693359 11.470930099487305 4.318645477294922 11.564765453338623 4.448941230773926 11.729817867279053 C 4.477670669555664 11.768330097198486 4.506161689758301 11.805619716644287 4.536202430725098 11.845660209655762 C 4.612973213195801 11.952332973480225 4.6948699951171875 12.073065757751465 4.784873008728027 12.183712005615234 C 4.8120527267456055 12.216111183166504 4.8360137939453125 12.241174697875977 4.858425140380859 12.263792991638184 C 5.124977111816406 12.604290008544922 5.415966987609863 12.968322277069092 5.6932477951049805 13.314932346343994 C 6.6071062088012695 14.452877044677734 7.303288459777832 15.129591941833496 7.303288459777832 15.129591941833496 C 7.363012313842773 14.99632740020752 6.519010543823242 14.075701713562012 5.825808525085449 13.21192741394043 C 5.50239372253418 12.808160305023193 5.01268196105957 12.276936054229736 4.622867584228516 11.791254043579102 C 4.622509956359863 11.790948390960693 4.622271537780762 11.790642738342285 4.621675491333008 11.790031433105469 C 4.621675491333008 11.790031433105469 4.11241340637207 10.87643575668335 3.840616226196289 10.807969570159912 C 3.822734832763672 10.798799991607666 3.8348941802978516 10.773430824279785 3.826907157897949 10.780460834503174 C 3.574779510498047 10.801856517791748 3.1917600631713867 11.248720645904541 3.8687496185302734 12.091404914855957 C 4.54573917388916 12.934089183807373 5.069306373596191 13.427106857299805 4.980376243591309 13.184418678283691 Z"/></g></svg>