<svg id="Capa_1" enable-background="new 0 0 512 512" height="512" viewBox="0 0 512 512" width="512" xmlns="http://www.w3.org/2000/svg"><g><path d="m302 76v49h30v-49c0-41.906-34.094-76-76-76l-10.001 15.5 10.001 14.5c25.364 0 46 20.636 46 46z" fill="#b4d2d7"/><path d="m180 76v49h30v-49c0-25.364 20.636-46 46-46v-30c-41.906 0-76 34.094-76 76z" fill="#e1ebf0"/><path d="m481.998 155h-225.998l-20.001 316.997 245.999-20.001z" fill="#03232e"/><path d="m30.002 155v296.996l225.998 20.001v-316.997z" fill="#07485e"/><path d="m451.998 185h-195.998l-20.001 118.498 20.001 118.498h195.998z" fill="#07485e"/><path d="m60.002 185h195.998v236.996h-195.998z" fill="#0b799d"/><path d="m235.999 471.997 20.001 40.003h256v-60.004h-210.997z" fill="#b4d2d7"/><path d="m0 451.996v60.004h256v-40.003l-45.003-20.001z" fill="#e1ebf0"/><path d="m362 110h-106l-20.001 74.998 20.001 77.002h106z" fill="#ffde55"/><path d="m150 110h106v152h-106z" fill="#ffeb99"/><path d="m332 140h-76l-20.001 44.998 20.001 47.002h76z" fill="#ffb655"/><path d="m180 140h76v92h-76z" fill="#ffde55"/><path d="m301.003 481.998v-30.002h-45.003l-10.001 13.848 10.001 16.154z" fill="#87a0af"/><path d="m210.997 451.996h45.003v30.002h-45.003z" fill="#b4d2d7"/></g></svg>