<svg version="1.1" xmlns="http://www.w3.org/2000/svg" xmlns:xlink="http://www.w3.org/1999/xlink" width="20" height="15"><defs/><g><path fill="rgb(255,255,255)" stroke="none" paint-order="stroke fill markers" fill-rule="evenodd" d=" M 17.999961853027344 1.999618649482727 C 17.999961853027344 1.999618649482727 17.843177795410156 1.9233216047286987 17.843177795410156 1.9233216047286987 C 17.843177795410156 1.9233216047286987 17.84272003173828 1.9233216047286987 17.84272003173828 1.9233216047286987 C 17.84272003173828 1.9233216047286987 17.999961853027344 1.999618649482727 17.999961853027344 1.999618649482727 C 17.999961853027344 1.999618649482727 1.9999771118164062 1.999618649482727 1.9999771118164062 1.999618649482727 C 1.5887908935546875 2.0016807317733765 1.0009078979492188 2.588858664035797 0.9999923706054688 2.999728560447693 C 0.9999923706054688 2.999728560447693 0.9999923706054688 12.999796628952026 0.9999923706054688 12.999796628952026 C 1.0009078979492188 13.411697566509247 1.5892486572265625 13.999906539916992 1.9999771118164062 13.999906539916992 C 1.9999771118164062 13.999906539916992 17.999961853027344 13.999906539916992 17.999961853027344 13.999906539916992 C 18.411605834960938 13.999906539916992 18.999488830566406 13.411182045936584 18.99994659423828 12.999796628952026 C 18.99994659423828 12.999796628952026 18.99994659423828 2.999728560447693 18.99994659423828 2.999728560447693 C 18.998916625976562 2.588858664035797 18.411148071289062 2.0006496906280518 17.999961853027344 1.999618649482727 Z M 16.999977111816406 12.999796628952026 C 16.781166076660156 13.168371856212616 17.88666534423828 13.115788757801056 17.84272003173828 13.115788757801056 C 17.84272003173828 13.115788757801056 2.0644073486328125 13.115788757801056 2.0644073486328125 13.115788757801056 C 2.0213775634765625 13.115788757801056 2.9999618530273438 13.043615877628326 2.9999618530273438 12.999796628952026 C 2.9999618530273438 12.999796628952026 2.9999618530273438 12.999796628952026 2.9999618530273438 12.999796628952026 C 2.9999618530273438 12.999796628952026 8 8.999872505664825 8 8.999872505664825 C 8 8.999872505664825 8.999984741210938 9.999982416629791 8.999984741210938 9.999982416629791 C 9.23046875 10.188662946224213 9.719703674316406 9.999982416629791 9.999969482421875 9.999982416629791 C 10.280807495117188 9.999982416629791 10.770042419433594 10.188662946224213 10.999954223632812 9.999982416629791 C 10.999954223632812 9.999982416629791 11.99993896484375 8.999872505664825 11.99993896484375 8.999872505664825 C 11.99993896484375 8.999872505664825 16.999977111816406 12.999796628952026 16.999977111816406 12.999796628952026 C 16.999977111816406 12.999796628952026 16.999977111816406 12.999796628952026 16.999977111816406 12.999796628952026 Z M 10.352447509765625 8.723553478717804 C 10.352447509765625 8.723553478717804 10.353019714355469 8.723553478717804 10.347640991210938 8.726131081581116 C 10.340316772460938 8.730255246162415 10.328071594238281 8.73798805475235 10.311935424804688 8.749845027923584 C 10.219696044921875 8.81016093492508 10.099990844726562 8.846247375011444 9.978912353515625 8.847278416156769 C 9.9775390625 8.847278416156769 9.975479125976562 8.847278416156769 9.973075866699219 8.847278416156769 C 9.971588134765625 8.847278416156769 9.969642639160156 8.847278416156769 9.967239379882812 8.847278416156769 C 9.825675964355469 8.846247375011444 9.688461303710938 8.798819482326508 9.598625183105469 8.723553478717804 C 9.598625183105469 8.723553478717804 2.9999618530273438 2.999728560447693 2.9999618530273438 2.999728560447693 C 3.0146102905273438 2.9873560667037964 2.9814224243164062 2.999728560447693 2.9999618530273438 2.999728560447693 C 2.9999618530273438 2.999728560447693 16.999977111816406 2.999728560447693 16.999977111816406 2.999728560447693 C 17.02629852294922 2.999728560447693 16.984756469726562 2.9785922169685364 16.999977111816406 2.999728560447693 C 16.999977111816406 2.999728560447693 10.660064697265625 8.470432877540588 10.660064697265625 8.470432877540588 C 10.660064697265625 8.470432877540588 10.352447509765625 8.723553478717804 10.352447509765625 8.723553478717804 Z M 1.9999771118164062 11.99968671798706 C 1.9999771118164062 11.99968671798706 1.9999771118164062 3.9998384714126587 1.9999771118164062 3.9998384714126587 C 1.9999771118164062 3.9998384714126587 6.999900817871094 7.99976259469986 6.999900817871094 7.99976259469986 C 6.999900817871094 7.99976259469986 1.9999771118164062 11.99968671798706 1.9999771118164062 11.99968671798706 Z M 17.999961853027344 3.9998384714126587 C 17.999961853027344 3.9998384714126587 17.926719665527344 12.170839548110962 17.926719665527344 12.170839548110962 C 17.926719665527344 12.170839548110962 12.999923706054688 7.99976259469986 12.999923706054688 7.99976259469986 C 12.999923706054688 7.99976259469986 17.999961853027344 3.9998384714126587 17.999961853027344 3.9998384714126587 Z"/></g></svg>