<svg version="1.1" xmlns="http://www.w3.org/2000/svg" xmlns:xlink="http://www.w3.org/1999/xlink" width="17" height="17"><defs/><g><path fill="rgb(255,255,255)" stroke="none" paint-order="stroke fill markers" fill-rule="evenodd" d=" M 15.424751281738281 5.5916078090667725 C 15.247940063476562 5.173520624637604 15.028213500976562 4.769352495670319 14.772438049316406 4.390444874763489 C 14.516548156738281 4.017207980155945 14.227470397949219 3.6656229496002197 13.906234741210938 3.345484673976898 C 13.586830139160156 3.0268929600715637 13.233322143554688 2.7382014393806458 12.858299255371094 2.4840497970581055 C 12.479385375976562 2.228351593017578 12.073234558105469 2.009255349636078 11.652320861816406 1.8319162726402283 C 11.225570678710938 1.6540616750717163 10.777305603027344 1.5133245587348938 10.320228576660156 1.4215618968009949 C 9.854454040527344 1.32412850856781 9.373916625976562 1.2772161364555359 8.894523620605469 1.2772161364555359 C 8.413070678710938 1.2772161364555359 7.932533264160156 1.32412850856781 7.467674255371094 1.4215618968009949 C 7.011627197265625 1.5133245587348938 6.5634765625 1.6540616750717163 6.133750915527344 1.8319162726402283 C 5.7138671875 2.009255349636078 5.3076019287109375 2.228351593017578 4.928688049316406 2.4840497970581055 C 4.555610656738281 2.7382014393806458 4.2021026611328125 3.0268929600715637 3.8798370361328125 3.345484673976898 C 3.5595169067382812 3.6656229496002197 3.26849365234375 4.017207980155945 3.0164947509765625 4.390444874763489 C 2.7607192993164062 4.769352495670319 2.5399627685546875 5.173520624637604 2.3613204956054688 5.5916078090667725 C 2.1806182861328125 6.0174278020858765 2.0419158935546875 6.466446220874786 1.9481887817382812 6.919588804244995 C 1.8525161743164062 7.382526278495789 1.8046798706054688 7.862991452217102 1.8046798706054688 8.339332461357117 C 1.8046798706054688 8.81979763507843 1.8525161743164062 9.298716247081757 1.9481887817382812 9.763200283050537 C 2.0419158935546875 10.216342866420746 2.1806182861328125 10.663814723491669 2.3613204956054688 11.091696798801422 C 2.5399627685546875 11.507721900939941 2.7607192993164062 11.913952112197876 3.0164947509765625 12.290797650814056 C 3.26849365234375 12.665581107139587 3.5595169067382812 13.015619575977325 3.8798370361328125 13.335757851600647 C 4.2021026611328125 13.655896127223969 4.555610656738281 13.945103168487549 4.928688049316406 14.19513064622879 C 5.3076019287109375 14.452890932559967 5.7138671875 14.671471655368805 6.133750915527344 14.849326252937317 C 6.5634765625 15.029242932796478 7.011627197265625 15.167917966842651 7.467674255371094 15.261227190494537 C 7.932533264160156 15.355051934719086 8.413070678710938 15.40402638912201 8.894523620605469 15.40402638912201 C 9.373916625976562 15.40402638912201 9.854454040527344 15.355051934719086 10.320228576660156 15.261227190494537 C 10.777305603027344 15.167917966842651 11.225570678710938 15.029242932796478 11.652320861816406 14.849326252937317 C 12.073234558105469 14.671471655368805 12.479385375976562 14.452890932559967 12.858299255371094 14.19513064622879 C 13.233322143554688 13.945103168487549 13.586830139160156 13.655896127223969 13.906234741210938 13.335757851600647 C 14.227470397949219 13.015619575977325 14.516548156738281 12.665581107139587 14.772438049316406 12.290797650814056 C 15.028213500976562 11.913952112197876 15.247940063476562 11.507721900939941 15.424751281738281 11.091696798801422 C 15.606369018554688 10.663814723491669 15.747016906738281 10.216342866420746 15.838798522949219 9.763200283050537 C 15.935501098632812 9.298716247081757 15.984367370605469 8.81979763507843 15.984367370605469 8.339332461357117 C 15.984367370605469 7.862991452217102 15.935501098632812 7.382526278495789 15.838798522949219 6.919588804244995 C 15.747016906738281 6.466446220874786 15.606369018554688 6.0174278020858765 15.424751281738281 5.5916078090667725 Z M 8.89349365234375 2.308257281780243 C 10.426658630371094 2.308257281780243 11.827072143554688 2.876876473426819 12.89251708984375 3.8140928745269775 C 12.875923156738281 3.837806820869446 12.014640808105469 5.14413595199585 9.730400085449219 5.997838020324707 C 8.695281982421875 4.103299915790558 7.5575103759765625 2.5974643230438232 7.467674255371094 2.4783790707588196 C 7.924751281738281 2.3690887093544006 8.403228759765625 2.308257281780243 8.89349365234375 2.308257281780243 Z M 7.444328308105469 2.4840497970581055 C 7.444328308105469 2.4840497970581055 7.4423828125 2.486111879348755 7.4423828125 2.486111879348755 C 7.4423828125 2.486111879348755 7.434486389160156 2.4881739616394043 7.4247589111328125 2.4881739616394043 C 7.429679870605469 2.4881739616394043 7.436431884765625 2.486111879348755 7.444328308105469 2.4840497970581055 Z M 6.309532165527344 2.8866713643074036 C 6.3915863037109375 2.9918375611305237 7.510704040527344 4.505405962467194 8.557609558105469 6.361280024051666 C 5.6522979736328125 7.130436718463898 3.128875732421875 7.1010520458221436 2.968658447265625 7.097443401813507 C 3.3622207641601562 5.228165805339813 4.623016357421875 3.6795420050621033 6.309532165527344 2.8866713643074036 Z M 4.388641357421875 12.368641257286072 C 4.389556884765625 12.370703339576721 4.390586853027344 12.370703339576721 4.390586853027344 12.370703339576721 C 4.390586853027344 12.370703339576721 4.389556884765625 12.370703339576721 4.388641357421875 12.368641257286072 Z M 4.387611389160156 12.368641257286072 C 3.4247055053710938 11.300482630729675 2.8387680053710938 9.890533864498138 2.8387680053710938 8.339332461357117 C 2.8387680053710938 8.276954472064972 2.8427734375 8.212514400482178 2.8447189331054688 8.150136411190033 C 2.9520645141601562 8.152198493480682 5.942291259765625 8.220247209072113 9.059547424316406 7.29076361656189 C 9.233383178710938 7.628429591655731 9.399322509765625 7.972281813621521 9.55267333984375 8.31613403558731 C 9.470619201660156 8.339332461357117 9.392570495605469 8.363046407699585 9.313377380371094 8.38624483346939 C 6.0478057861328125 9.438937842845917 4.389556884765625 12.365032613277435 4.387611389160156 12.368641257286072 Z M 5.17279052734375 13.09758734703064 C 5.17279052734375 13.09758734703064 5.1180877685546875 13.054283618927002 5.0379791259765625 12.991905629634857 C 5.0810089111328125 13.026961028575897 5.1318206787109375 13.052221536636353 5.1766815185546875 13.087792456150055 C 5.1766815185546875 13.087792456150055 5.17279052734375 13.09758734703064 5.17279052734375 13.09758734703064 Z M 8.894523620605469 14.372985243797302 C 7.489189147949219 14.372985243797302 6.204017639160156 13.88633382320404 5.1766815185546875 13.087792456150055 C 5.221656799316406 12.991905629634857 6.40325927734375 10.548338115215302 9.923805236816406 9.32810091972351 C 9.938453674316406 9.323976755142212 9.949211120605469 9.319852590560913 9.963859558105469 9.314181864261627 C 10.815414428710938 11.521125435829163 11.168922424316406 13.366689085960388 11.256813049316406 13.894066631793976 C 10.532173156738281 14.202863454818726 9.731430053710938 14.372985243797302 8.894523620605469 14.372985243797302 Z M 12.2763671875 13.343490660190582 C 12.215713500976562 12.980048656463623 11.892532348632812 11.210782051086426 11.099571228027344 9.034769713878632 C 13.05364990234375 8.722364246845245 14.747032165527344 9.257474601268768 14.871086120605469 9.298716247081757 C 14.602493286132812 10.978282272815704 13.636611938476562 12.42947268486023 12.2763671875 13.343490660190582 Z M 10.729469299316406 8.08363425731659 C 10.687469482421875 7.980014622211456 10.644439697265625 7.876910507678986 10.598548889160156 7.771228790283203 C 10.471633911132812 7.476351022720337 10.338768005371094 7.18353533744812 10.1962890625 6.896390378475189 C 12.588790893554688 5.9256651401519775 13.558563232421875 4.524995744228363 13.569320678710938 4.509530127048492 C 14.419845581054688 5.536962628364563 14.931625366210938 6.849478006362915 14.946273803710938 8.279016554355621 C 14.858383178710938 8.261488854885101 12.809547424316406 7.823811888694763 10.729469299316406 8.08363425731659 Z"/></g></svg>