<svg version="1.1" xmlns="http://www.w3.org/2000/svg" xmlns:xlink="http://www.w3.org/1999/xlink" width="9" height="17"><defs/><g><path fill="rgb(255,255,255)" stroke="none" paint-order="stroke fill markers" fill-rule="evenodd" d=" M 2.6942825317382812 15.242043018341064 C 2.6942825317382812 15.242043018341064 5.6396484375 15.242043018341064 5.6396484375 15.242043018341064 C 5.6396484375 15.242043018341064 5.6396484375 8.18353533744812 5.6396484375 8.18353533744812 C 5.6396484375 8.18353533744812 7.625885009765625 8.18353533744812 7.625885009765625 8.18353533744812 C 7.625885009765625 8.18353533744812 7.883720397949219 5.689446806907654 7.883720397949219 5.689446806907654 C 7.883720397949219 5.689446806907654 5.6396484375 5.689446806907654 5.6396484375 5.689446806907654 C 5.6396484375 5.689446806907654 5.6396484375 4.222275257110596 5.6396484375 4.222275257110596 C 5.6396484375 3.6737613677978516 6.00677490234375 3.544881224632263 6.264610290527344 3.544881224632263 C 6.264610290527344 3.544881224632263 7.846641540527344 3.544881224632263 7.846641540527344 3.544881224632263 C 7.846641540527344 3.544881224632263 7.846641540527344 1.1229655742645264 7.846641540527344 1.1229655742645264 C 7.846641540527344 1.1229655742645264 5.6659698486328125 1.115232765674591 5.6659698486328125 1.115232765674591 C 3.245086669921875 1.115232765674591 2.6942825317382812 2.921616852283478 2.6942825317382812 4.075867414474487 C 2.6942825317382812 4.075867414474487 2.6942825317382812 5.689446806907654 2.6942825317382812 5.689446806907654 C 2.6942825317382812 5.689446806907654 1.2948989868164062 5.689446806907654 1.2948989868164062 5.689446806907654 C 1.2948989868164062 5.689446806907654 1.2948989868164062 8.18353533744812 1.2948989868164062 8.18353533744812 C 1.2948989868164062 8.18353533744812 2.6942825317382812 8.18353533744812 2.6942825317382812 8.18353533744812 C 2.6942825317382812 8.18353533744812 2.6942825317382812 15.242043018341064 2.6942825317382812 15.242043018341064 Z"/></g></svg>