<svg version="1.1" xmlns="http://www.w3.org/2000/svg" xmlns:xlink="http://www.w3.org/1999/xlink" width="18" height="17"><defs/><g><path fill="rgb(255,255,255)" stroke="none" paint-order="stroke fill markers" fill-rule="evenodd" d=" M 10.928749084472656 1.4361063838005066 C 10.928749084472656 1.4361063838005066 6.74993896484375 1.4361063838005066 6.74993896484375 1.4361063838005066 C 4.629920959472656 1.4361063838005066 2.860321044921875 2.992978513240814 2.860321044921875 4.707599937915802 C 2.860321044921875 6.459854364395142 4.0223541259765625 7.854337513446808 6.018547058105469 7.854337513446808 C 6.155303955078125 7.854337513446808 6.290000915527344 7.84815126657486 6.422752380371094 7.838871896266937 C 6.2928619384765625 8.08683729171753 6.201080322265625 8.362125277519226 6.201080322265625 8.649270236492157 C 6.201080322265625 9.135406136512756 6.4686431884765625 9.414818286895752 6.801666259765625 9.737018644809723 C 6.550811767578125 9.737018644809723 6.307624816894531 9.742689371109009 6.0438385009765625 9.742689371109009 C 3.6162033081054688 9.742689371109009 1.9150390625 11.406789779663086 1.9150390625 13.006450116634369 C 1.9150390625 14.578787863254547 3.9647903442382812 15.563432157039642 6.392539978027344 15.563432157039642 C 9.161094665527344 15.563432157039642 10.862258911132812 13.9988272190094 10.862258911132812 12.424427390098572 C 10.862258911132812 11.162948548793793 10.5887451171875 10.527827203273773 9.239143371582031 9.519984483718872 C 8.852447509765625 9.231292963027954 8.010734558105469 8.635351181030273 8.010734558105469 8.236853778362274 C 8.010734558105469 7.772369742393494 8.142570495605469 7.541932046413422 8.849586486816406 6.992902636528015 C 9.571250915527344 6.428407609462738 10.083030700683594 5.688120067119598 10.083030700683594 4.76636928319931 C 10.083030700683594 3.764197289943695 9.672760009765625 2.854303479194641 8.897422790527344 2.4130178689956665 C 8.897422790527344 2.4130178689956665 9.995140075683594 2.4130178689956665 9.995140075683594 2.4130178689956665 C 9.995140075683594 2.4130178689956665 10.928749084472656 1.4361063838005066 10.928749084472656 1.4361063838005066 Z M 9.511741638183594 12.154810130596161 C 9.545845031738281 12.299671411514282 9.565414428710938 12.44814133644104 9.565414428710938 12.602281987667084 C 9.565414428710938 13.873555719852448 8.7430419921875 14.865932822227478 6.383842468261719 14.865932822227478 C 4.705108642578125 14.865932822227478 3.4930648803710938 13.809115648269653 3.4930648803710938 12.53784191608429 C 3.4930648803710938 11.291828691959381 4.9149932861328125 10.215421736240387 6.593727111816406 10.235011518001556 C 6.985343933105469 10.239135682582855 7.350639343261719 10.301513671875 7.680572509765625 10.40874195098877 C 8.592781066894531 11.03973913192749 9.3271484375 11.43411237001419 9.511741638183594 12.154810130596161 Z M 6.824211120605469 7.219216167926788 C 5.697196960449219 7.184160768985748 4.626945495605469 6.155181705951691 4.434455871582031 4.682339429855347 C 4.237274169921875 3.2079505920410156 4.994071960449219 2.0789605379104614 6.12005615234375 2.111953854560852 C 7.246955871582031 2.147009253501892 8.209861755371094 3.355904996395111 8.404296875 4.8308093547821045 C 8.598617553710938 6.3036516308784485 7.9501953125 7.252725005149841 6.824211120605469 7.219216167926788 Z M 14.155296325683594 3.549740731716156 C 14.155296325683594 3.549740731716156 14.155296325683594 1.627880036830902 14.155296325683594 1.627880036830902 C 14.155296325683594 1.627880036830902 13.191360473632812 1.627880036830902 13.191360473632812 1.627880036830902 C 13.191360473632812 1.627880036830902 13.191360473632812 3.549740731716156 13.191360473632812 3.549740731716156 C 13.191360473632812 3.549740731716156 11.264633178710938 3.549740731716156 11.264633178710938 3.549740731716156 C 11.264633178710938 3.549740731716156 11.264633178710938 4.5086089968681335 11.264633178710938 4.5086089968681335 C 11.264633178710938 4.5086089968681335 13.191360473632812 4.5086089968681335 13.191360473632812 4.5086089968681335 C 13.191360473632812 4.5086089968681335 13.191360473632812 6.4304696917533875 13.191360473632812 6.4304696917533875 C 13.191360473632812 6.4304696917533875 14.155296325683594 6.4304696917533875 14.155296325683594 6.4304696917533875 C 14.155296325683594 6.4304696917533875 14.155296325683594 4.5086089968681335 14.155296325683594 4.5086089968681335 C 14.155296325683594 4.5086089968681335 16.084884643554688 4.5086089968681335 16.084884643554688 4.5086089968681335 C 16.084884643554688 4.5086089968681335 16.084884643554688 3.549740731716156 16.084884643554688 3.549740731716156 C 16.084884643554688 3.549740731716156 14.155296325683594 3.549740731716156 14.155296325683594 3.549740731716156 Z"/></g></svg>