<svg version="1.1" xmlns="http://www.w3.org/2000/svg" xmlns:xlink="http://www.w3.org/1999/xlink" width="17" height="18"><defs/><g><path fill="rgb(255,255,255)" stroke="none" paint-order="stroke fill markers" fill-rule="evenodd" d=" M 15.666969299316406 7.178439080715179 C 15.665939331054688 7.145445764064789 15.6611328125 7.125855982303619 15.6611328125 7.121731817722321 C 15.621994018554688 6.803655624389648 15.35443115234375 6.556205749511719 15.025299072265625 6.556205749511719 C 15.025299072265625 6.556205749511719 14.860275268554688 6.556205749511719 14.860275268554688 6.556205749511719 C 14.860275268554688 6.556205749511719 14.860275268554688 5.9360345005989075 14.860275268554688 5.9360345005989075 C 14.860275268554688 5.9360345005989075 14.860275268554688 5.9360345005989075 14.860275268554688 5.9360345005989075 C 14.860275268554688 5.9360345005989075 14.860275268554688 5.801483631134033 14.860275268554688 5.801483631134033 C 14.860275268554688 5.801483631134033 14.860275268554688 5.6298152804374695 14.860275268554688 5.6298152804374695 C 14.860275268554688 5.6298152804374695 14.75384521484375 5.524133563041687 14.75384521484375 5.524133563041687 C 14.75384521484375 5.524133563041687 11.113250732421875 1.8824962377548218 11.113250732421875 1.8824962377548218 C 11.113250732421875 1.8824962377548218 10.941360473632812 1.7216538190841675 10.941360473632812 1.7216538190841675 C 10.941360473632812 1.7216538190841675 10.780227661132812 1.7206227779388428 10.780227661132812 1.7206227779388428 C 10.780227661132812 1.7206227779388428 10.716712951660156 1.7216538190841675 10.716712951660156 1.7216538190841675 C 10.716712951660156 1.7216538190841675 10.999954223632812 1.999519407749176 10.999954223632812 1.999519407749176 C 10.999954223632812 1.999519407749176 1.9999771118164062 1.999519407749176 1.9999771118164062 1.999519407749176 C 1.9999771118164062 1.999519407749176 2.237213134765625 6.556205749511719 2.237213134765625 6.556205749511719 C 2.237213134765625 6.556205749511719 2.0721893310546875 6.556205749511719 2.0721893310546875 6.556205749511719 C 1.753814697265625 6.556205749511719 1.4931182861328125 6.786127924919128 1.4403610229492188 7.0866764187812805 C 1.4403610229492188 7.0866764187812805 1.4394454956054688 7.089769542217255 1.4394454956054688 7.089769542217255 C 1.4394454956054688 7.089769542217255 1.4334945678710938 7.142352640628815 1.4334945678710938 7.142352640628815 C 1.4334945678710938 7.142352640628815 1.430633544921875 7.157818257808685 1.430633544921875 7.157818257808685 C 1.430633544921875 7.157818257808685 1.430633544921875 7.174314916133881 1.430633544921875 7.174314916133881 C 1.4296035766601562 7.180501163005829 1.4296035766601562 7.188233971595764 1.4296035766601562 7.198028862476349 C 1.4296035766601562 7.198028862476349 1.4296035766601562 7.393411159515381 1.4296035766601562 7.393411159515381 C 1.4296035766601562 7.393411159515381 0.9999923706054688 6.999553442001343 0.9999923706054688 6.999553442001343 C 0.9999923706054688 6.999553442001343 0.9999923706054688 14.999917209148407 0.9999923706054688 14.999917209148407 C 0.9999923706054688 14.999917209148407 0.9999923706054688 15.99951159954071 0.9999923706054688 15.99951159954071 C 0.9999923706054688 16.35418975353241 1.6454391479492188 16.99859046936035 1.9999771118164062 16.999621510505676 C 1.9999771118164062 16.999621510505676 14.999893188476562 16.999621510505676 14.999893188476562 16.999621510505676 C 15.353401184082031 16.99859046936035 15.998046875 16.35418975353241 15.999992370605469 15.99951159954071 C 15.999992370605469 15.99951159954071 15.999992370605469 6.999553442001343 15.999992370605469 6.999553442001343 C 15.999992370605469 6.999553442001343 15.667884826660156 7.403206050395966 15.667884826660156 7.403206050395966 C 15.667884826660156 7.403206050395966 15.667884826660156 7.18514084815979 15.667884826660156 7.18514084815979 C 15.667884826660156 7.18514084815979 15.666969299316406 7.178439080715179 15.666969299316406 7.178439080715179 Z M 15.025299072265625 7.159880340099335 C 15.026329040527344 7.159880340099335 15.027244567871094 7.159880340099335 15.029190063476562 7.160911381244659 C 15.029190063476562 7.160911381244659 14.860275268554688 7.2995864152908325 14.860275268554688 7.2995864152908325 C 14.860275268554688 7.2995864152908325 14.860275268554688 7.159880340099335 14.860275268554688 7.159880340099335 C 14.860275268554688 7.159880340099335 15.025299072265625 7.159880340099335 15.025299072265625 7.159880340099335 Z M 10.999954223632812 4.9998491406440735 C 10.999954223632812 4.9998491406440735 10.999954223632812 2.999629318714142 10.999954223632812 2.999629318714142 C 10.999954223632812 2.999629318714142 12.999923706054688 4.9998491406440735 12.999923706054688 4.9998491406440735 C 12.999923706054688 4.9998491406440735 10.999954223632812 4.9998491406440735 10.999954223632812 4.9998491406440735 Z M 14.652336120605469 8.255361557006836 C 14.652336120605469 8.255361557006836 15.063407897949219 7.915633499622345 15.063407897949219 7.915633499622345 C 15.063407897949219 7.915633499622345 15.063407897949219 15.043736457824707 15.063407897949219 15.043736457824707 C 15.063407897949219 15.043736457824707 10.686500549316406 11.526855111122131 10.686500549316406 11.526855111122131 C 10.686500549316406 11.526855111122131 11.318328857421875 11.003601729869843 11.318328857421875 11.003601729869843 C 11.318328857421875 11.003601729869843 14.652336120605469 8.255361557006836 14.652336120605469 8.255361557006836 C 14.652336120605469 8.255361557006836 14.652336120605469 8.255361557006836 14.652336120605469 8.255361557006836 Z M 10.044830322265625 11.273218989372253 C 10.044830322265625 11.273218989372253 10.042884826660156 11.274250030517578 10.042884826660156 11.274250030517578 C 10.042884826660156 11.274250030517578 9.958885192871094 11.344360828399658 9.958885192871094 11.344360828399658 C 9.958885192871094 11.344360828399658 9.94915771484375 11.352093636989594 9.94915771484375 11.352093636989594 C 9.94915771484375 11.352093636989594 8.856361389160156 12.25373911857605 8.856361389160156 12.25373911857605 C 8.788040161132812 12.311477422714233 8.677719116210938 12.349110424518585 8.566368103027344 12.348594903945923 C 8.45501708984375 12.349110424518585 8.343666076660156 12.311477422714233 8.276260375976562 12.25373911857605 C 8.276260375976562 12.25373911857605 8.106430053710938 12.115064084529877 8.106430053710938 12.115064084529877 C 8.106430053710938 12.115064084529877 7.251899719238281 11.409831941127777 7.251899719238281 11.409831941127777 C 7.251899719238281 11.409831941127777 7.251899719238281 11.408800899982452 7.251899719238281 11.408800899982452 C 7.251899719238281 11.408800899982452 2.8416900634765625 7.773349821567535 2.8416900634765625 7.773349821567535 C 2.8416900634765625 7.773349821567535 2.9999618530273438 2.999629318714142 2.9999618530273438 2.999629318714142 C 2.9999618530273438 2.999629318714142 9.999969482421875 2.999629318714142 9.999969482421875 2.999629318714142 C 9.999969482421875 2.999629318714142 9.999969482421875 5.999959051609039 9.999969482421875 5.999959051609039 C 9.999969482421875 5.999959051609039 14.25579833984375 6.0571818351745605 14.25579833984375 6.0571818351745605 C 14.25579833984375 6.0571818351745605 14.25579833984375 7.797579288482666 14.25579833984375 7.797579288482666 C 14.25579833984375 7.797579288482666 10.044830322265625 11.273218989372253 10.044830322265625 11.273218989372253 Z M 2.8416900634765625 8.557456612586975 C 2.8416900634765625 8.557456612586975 2.8416900634765625 8.55642557144165 2.8416900634765625 8.55642557144165 C 2.8416900634765625 8.55642557144165 4.779289245605469 10.154023826122284 4.779289245605469 10.154023826122284 C 4.779289245605469 10.154023826122284 6.413963317871094 11.502625644207 6.413963317871094 11.502625644207 C 6.413963317871094 11.502625644207 2.0331649780273438 15.040643334388733 2.0331649780273438 15.040643334388733 C 2.0331649780273438 15.040643334388733 2.0331649780273438 7.891404032707214 2.0331649780273438 7.891404032707214 C 2.0331649780273438 7.891404032707214 2.8416900634765625 8.557456612586975 2.8416900634765625 8.557456612586975 Z M 6.8906097412109375 11.89442127943039 C 6.8906097412109375 11.89442127943039 7.892539978027344 12.72028523683548 7.892539978027344 12.72028523683548 C 8.087890625 12.880612134933472 8.330047607421875 12.951753973960876 8.566368103027344 12.952785015106201 C 8.802688598632812 12.951753973960876 9.044845581054688 12.880612134933472 9.240196228027344 12.72028523683548 C 9.240196228027344 12.72028523683548 10.210884094238281 11.91865074634552 10.210884094238281 11.91865074634552 C 10.210884094238281 11.91865074634552 15.062492370605469 15.818048357963562 15.062492370605469 15.818048357963562 C 15.060546875 15.835576057434082 15.042922973632812 15.853103756904602 15.024383544921875 15.853103756904602 C 15.024383544921875 15.853103756904602 2.0721893310546875 15.853103756904602 2.0721893310546875 15.853103756904602 C 2.0546798706054688 15.853103756904602 2.0351104736328125 15.834545016288757 2.0331649780273438 15.817017316818237 C 2.0331649780273438 15.817017316818237 6.8906097412109375 11.89442127943039 6.8906097412109375 11.89442127943039 Z M 2.0966796875 7.159880340099335 C 2.0966796875 7.159880340099335 2.237213134765625 7.159880340099335 2.237213134765625 7.159880340099335 C 2.237213134765625 7.159880340099335 2.237213134765625 7.275872468948364 2.237213134765625 7.275872468948364 C 2.237213134765625 7.275872468948364 2.0966796875 7.159880340099335 2.0966796875 7.159880340099335 Z"/></g></svg>