<svg version="1.1" xmlns="http://www.w3.org/2000/svg" xmlns:xlink="http://www.w3.org/1999/xlink" width="19" height="19"><defs/><g><path fill="rgb(214,214,214)" stroke="none" paint-order="stroke fill markers" fill-rule="evenodd" d=" M 12.934486389160156 12.34934777021408 C 12.934486389160156 12.34934777021408 12.950164794921875 12.328726947307587 12.950164794921875 12.328726947307587 C 13.0302734375 12.236964285373688 13.108322143554688 12.142108500003815 13.182594299316406 12.046221673488617 C 13.182594299316406 12.046221673488617 13.200103759765625 12.023538768291473 13.200103759765625 12.023538768291473 C 13.200103759765625 12.023538768291473 13.229400634765625 11.986936807632446 13.229400634765625 11.986936807632446 C 14.047767639160156 10.900219440460205 14.48138427734375 9.604200720787048 14.48138427734375 8.237040162086487 C 14.48138427734375 6.568815588951111 13.831932067871094 5.001633048057556 12.652275085449219 3.821606457233429 C 11.473533630371094 2.643126428127289 9.905235290527344 1.9940860271453857 8.237258911132812 1.9940860271453857 C 6.569282531738281 1.9940860271453857 5.001899719238281 2.643126428127289 3.8222427368164062 3.821606457233429 C 2.6425857543945312 5.001633048057556 1.994049072265625 6.568815588951111 1.994049072265625 8.237040162086487 C 1.994049072265625 9.9047492146492 2.6425857543945312 11.472447276115417 3.8222427368164062 12.65144282579422 C 5.001899719238281 13.83198493719101 6.569282531738281 14.481025338172913 8.237258911132812 14.481025338172913 C 9.614097595214844 14.481025338172913 10.969650268554688 14.01808786392212 12.053634643554688 13.176242768764496 C 12.145416259765625 13.106131970882416 12.237197875976562 13.029834926128387 12.330009460449219 12.950444757938385 C 12.330009460449219 12.950444757938385 12.345687866210938 12.937041223049164 12.345687866210938 12.937041223049164 C 12.345687866210938 12.937041223049164 12.364112854003906 12.920544564723969 12.364112854003906 12.920544564723969 C 12.473518371582031 12.82465773820877 12.566329956054688 12.737534761428833 12.652275085449219 12.65144282579422 C 12.740165710449219 12.565350890159607 12.8270263671875 12.472041666507721 12.916976928710938 12.36893755197525 C 12.916976928710938 12.36893755197525 12.934486389160156 12.34934777021408 12.934486389160156 12.34934777021408 Z M 11.680671691894531 11.680202066898346 C 10.76068115234375 12.599890768527985 9.537994384765625 13.106647491455078 8.236228942871094 13.106647491455078 C 6.936408996582031 13.106647491455078 5.714752197265625 12.599890768527985 4.7948760986328125 11.680202066898346 C 3.875 10.760513365268707 3.3681411743164062 9.53872960805893 3.3681411743164062 8.240133285522461 C 3.3681411743164062 6.936897277832031 3.875 5.713566958904266 4.793846130371094 4.79439377784729 C 5.713836669921875 3.8736740350723267 6.936408996582031 3.367948353290558 8.237258911132812 3.367948353290558 C 9.537994384765625 3.367948353290558 10.76068115234375 3.8736740350723267 11.680671691894531 4.793362736701965 C 12.600547790527344 5.713566958904266 13.106376647949219 6.936897277832031 13.106376647949219 8.237040162086487 C 13.106376647949219 9.537698566913605 12.600547790527344 10.760513365268707 11.680671691894531 11.680202066898346 Z M 16.993133544921875 15.506911277770996 C 16.993133544921875 15.506911277770996 16.8095703125 15.32390147447586 16.8095703125 15.32390147447586 C 16.8095703125 15.32390147447586 16.81048583984375 15.322870433330536 16.81048583984375 15.322870433330536 C 16.81048583984375 15.322870433330536 14.790946960449219 13.302545309066772 14.790946960449219 13.302545309066772 C 14.781105041503906 13.291719377040863 14.767486572265625 13.290172815322876 14.7587890625 13.290172815322876 C 14.750892639160156 13.290172815322876 14.739105224609375 13.291719377040863 14.727432250976562 13.302545309066772 C 14.727432250976562 13.302545309066772 14.660026550292969 13.370594024658203 14.660026550292969 13.370594024658203 C 14.660026550292969 13.370594024658203 13.7059326171875 14.32482260465622 13.7059326171875 14.32482260465622 C 13.7059326171875 14.32482260465622 13.303672790527344 14.72795969247818 13.303672790527344 14.72795969247818 C 13.293830871582031 14.73672354221344 13.289939880371094 14.74754947423935 13.289939880371094 14.760437488555908 C 13.289939880371094 14.770747900009155 13.29486083984375 14.78054279088974 13.303672790527344 14.789822161197662 C 13.303672790527344 14.789822161197662 15.505859375 16.994188129901886 15.505859375 16.994188129901886 C 15.512611389160156 17.00140541791916 15.524398803710938 17.005529582500458 15.538017272949219 17.005529582500458 C 15.543853759765625 17.005529582500458 15.557586669921875 17.00346750020981 15.567314147949219 16.994188129901886 C 15.567314147949219 16.994188129901886 16.28028106689453 16.28070765733719 16.28028106689453 16.28070765733719 C 16.28028106689453 16.28070765733719 16.993133544921875 15.566196143627167 16.993133544921875 15.566196143627167 C 17.00091552734375 15.558978855609894 17.005836486816406 15.548152923583984 17.005836486816406 15.53629595041275 C 17.005836486816406 15.523407936096191 17.00091552734375 15.513097524642944 16.993133544921875 15.506911277770996 Z M 13.930694580078125 13.18809974193573 C 13.930694580078125 13.18809974193573 13.464691162109375 12.721038103103638 13.464691162109375 12.721038103103638 C 13.444206237792969 12.744752049446106 13.424751281738281 12.767950475215912 13.405296325683594 12.790633380413055 C 13.405296325683594 12.790633380413055 13.39739990234375 12.79836618900299 13.39739990234375 12.79836618900299 C 13.39739990234375 12.79836618900299 13.385612487792969 12.812800765037537 13.385612487792969 12.812800765037537 C 13.286048889160156 12.924153208732605 13.196212768554688 13.01952451467514 13.108322143554688 13.10716301202774 C 13.021461486816406 13.19480150938034 12.92864990234375 13.28244000673294 12.815353393554688 13.383482038974762 C 12.815353393554688 13.383482038974762 12.812492370605469 13.386059641838074 12.812492370605469 13.386059641838074 C 12.812492370605469 13.386059641838074 12.800704956054688 13.394823491573334 12.800704956054688 13.394823491573334 C 12.774383544921875 13.418537437915802 12.748977661132812 13.441220343112946 12.721626281738281 13.464418768882751 C 12.721626281738281 13.464418768882751 13.188430786132812 13.931480407714844 13.188430786132812 13.931480407714844 C 13.188430786132812 13.931480407714844 13.559562683105469 13.559274554252625 13.559562683105469 13.559274554252625 C 13.559562683105469 13.559274554252625 13.930694580078125 13.18809974193573 13.930694580078125 13.18809974193573 Z"/></g></svg>