<svg version="1.1" xmlns="http://www.w3.org/2000/svg" xmlns:xlink="http://www.w3.org/1999/xlink" width="19" height="16"><defs/><g><path fill="rgb(255,255,255)" stroke="none" paint-order="stroke fill markers" fill-rule="evenodd" d=" M 16.57563018798828 2.989834427833557 C 16.57563018798828 2.989834427833557 16.57563018798828 2.776924431324005 16.57563018798828 2.776924431324005 C 16.574600219726562 2.514524459838867 16.362197875976562 2.301614463329315 16.09955596923828 2.3005834221839905 C 16.09955596923828 2.3005834221839905 9.314353942871094 2.3005834221839905 9.314353942871094 2.3005834221839905 C 9.303138732910156 2.3005834221839905 9.291923522949219 2.3005834221839905 9.280708312988281 2.3005834221839905 C 9.274871826171875 2.29388165473938 9.269035339355469 2.286664366722107 9.263656616210938 2.280993640422821 C 9.263656616210938 2.280993640422821 8.499420166015625 1.3613049387931824 8.499420166015625 1.3613049387931824 C 8.362205505371094 1.2118039727210999 8.199127197265625 1.0076578259468079 8 0.9999250173568726 C 8 0.9999250173568726 1.9999771118164062 0.9999250173568726 1.9999771118164062 0.9999250173568726 C 1.737335205078125 0.9999250173568726 1.7079238891601562 1.332951307296753 1.7079238891601562 1.5953512787818909 C 1.7079238891601562 1.5953512787818909 1.7074661254882812 4.23687869310379 1.7074661254882812 4.23687869310379 C 1.482818603515625 4.280182421207428 0.9999923706054688 4.7621941566467285 0.9999923706054688 4.9998491406440735 C 0.9999923706054688 4.9998491406440735 0.9999923706054688 12.999697387218475 0.9999923706054688 12.999697387218475 C 1.0009078979492188 13.268283605575562 1.7319564819335938 13.998776257038116 1.9999771118164062 13.999807298183441 C 1.9999771118164062 13.999807298183441 16.999977111816406 13.999807298183441 16.999977111816406 13.999807298183441 C 17.269027709960938 13.998776257038116 16.970680236816406 14.07610434293747 16.97113800048828 13.807518124580383 C 16.97113800048828 13.807518124580383 16.97216796875 3.468237519264221 16.97216796875 3.468237519264221 C 16.970680236816406 3.230067014694214 16.801193237304688 3.03210711479187 16.57563018798828 2.989834427833557 Z M 2.3149185180664062 2.6392804384231567 C 2.3149185180664062 2.6392804384231567 1.9999771118164062 1.999519407749176 1.9999771118164062 1.999519407749176 C 1.9999771118164062 1.999519407749176 8 1.999519407749176 8 1.999519407749176 C 8.006866455078125 2.0015814900398254 8.003318786621094 1.734026312828064 8.016593933105469 1.7407280802726746 C 8.024375915527344 1.745883285999298 8.031700134277344 1.7505229711532593 8.035133361816406 1.7525850534439087 C 8.035133361816406 1.7525850534439087 8.773391723632812 2.6392804384231567 8.773391723632812 2.6392804384231567 C 8.773391723632812 2.6392804384231567 2.3149185180664062 2.6392804384231567 2.3149185180664062 2.6392804384231567 Z M 2.8759078979492188 3.246048152446747 C 2.8759078979492188 3.246048152446747 9.820297241210938 3.246048152446747 9.820297241210938 3.246048152446747 C 9.820297241210938 3.246048152446747 9.273841857910156 3.902821362018585 9.273841857910156 3.902821362018585 C 9.273841857910156 3.902821362018585 9.025390625 4.2007922530174255 9.025390625 4.2007922530174255 C 9.017494201660156 4.21058714389801 9.009712219238281 4.21935099363327 9.002388000488281 4.229145884513855 C 9.002388000488281 4.229145884513855 2.8759078979492188 4.229145884513855 2.8759078979492188 4.229145884513855 C 2.8759078979492188 4.229145884513855 2.8759078979492188 3.246048152446747 2.8759078979492188 3.246048152446747 Z M 9.085357666015625 4.835913598537445 C 9.095657348632812 4.835913598537445 9.103439331054688 4.835913598537445 9.109275817871094 4.836429119110107 C 9.109275817871094 4.836429119110107 9.239166259765625 4.825087666511536 9.280708312988281 4.803435802459717 C 9.308059692382812 4.790032267570496 9.37786865234375 4.724561154842377 9.37786865234375 4.724561154842377 C 9.404190063476562 4.695176482200623 9.438865661621094 4.654965877532959 9.488761901855469 4.595681011676788 C 9.488761901855469 4.595681011676788 10.296371459960938 3.6435145139694214 10.296371459960938 3.6435145139694214 C 10.302665710449219 3.6393903493881226 10.320289611816406 3.6275333762168884 10.336883544921875 3.620831608772278 C 10.347068786621094 3.616707444190979 10.356910705566406 3.6141298413276672 10.362747192382812 3.612067759037018 C 10.362747192382812 3.612067759037018 9.999969482421875 3.9997392296791077 9.999969482421875 3.9997392296791077 C 9.999969482421875 3.9997392296791077 14.999893188476562 3.9997392296791077 14.999893188476562 3.9997392296791077 C 14.999893188476562 3.9997392296791077 15.999992370605469 3.9997392296791077 15.999992370605469 3.9997392296791077 C 15.999992370605469 3.9997392296791077 15.999992370605469 12.999697387218475 15.999992370605469 12.999697387218475 C 15.999992370605469 12.999697387218475 1.9999771118164062 12.999697387218475 1.9999771118164062 12.999697387218475 C 1.9999771118164062 12.999697387218475 1.9183807373046875 4.835913598537445 1.9183807373046875 4.835913598537445 C 1.9183807373046875 4.835913598537445 8.994606018066406 4.835913598537445 8.994606018066406 4.835913598537445 C 9.029281616210938 4.835913598537445 9.06201171875 4.835913598537445 9.085357666015625 4.835913598537445 Z"/></g></svg>