<svg version="1.1" xmlns="http://www.w3.org/2000/svg" xmlns:xlink="http://www.w3.org/1999/xlink" width="12" height="19"><defs/><g><path fill="rgb(255,255,255)" stroke="none" paint-order="stroke fill markers" fill-rule="evenodd" d=" M 6.970428466796875 6.886984169483185 C 6.962646484375 6.795221507549286 6.9303741455078125 6.709129571914673 6.880592346191406 6.636956691741943 C 6.880592346191406 6.636956691741943 8.46502685546875 6.636956691741943 8.46502685546875 6.636956691741943 C 8.753646850585938 6.635925650596619 8.986534118652344 6.404456913471222 8.988021850585938 6.115765392780304 C 8.988021850585938 6.115765392780304 8.988021850585938 5.7775838971138 8.988021850585938 5.7775838971138 C 8.988021850585938 5.690460920333862 8.966506958007812 5.608493149280548 8.929428100585938 5.538382351398468 C 8.929428100585938 5.538382351398468 10.999893188476562 0.9997392296791077 10.999893188476562 0.9997392296791077 C 10.999893188476562 0.9997392296791077 5.999969482421875 0.9997392296791077 5.999969482421875 0.9997392296791077 C 5.999969482421875 0.9997392296791077 0.9999313354492188 0.9997392296791077 0.9999313354492188 0.9997392296791077 C 0.9999313354492188 0.9997392296791077 1.2687530517578125 1.6838350296020508 1.2687530517578125 1.6838350296020508 C 1.2687530517578125 1.6838350296020508 3.1192626953125 5.46208530664444 3.1192626953125 5.46208530664444 C 3.0525436401367188 5.549208283424377 3.0129470825195312 5.658498644828796 3.0123748779296875 5.7775838971138 C 3.0123748779296875 5.7775838971138 3.0123748779296875 6.114734351634979 3.0123748779296875 6.114734351634979 C 3.0129470825195312 6.403425872325897 3.2462921142578125 6.635925650596619 3.5343399047851562 6.636956691741943 C 3.5343399047851562 6.636956691741943 5.119804382324219 6.636956691741943 5.119804382324219 6.636956691741943 C 5.0700225830078125 6.709129571914673 5.037750244140625 6.795221507549286 5.02996826171875 6.886984169483185 C 2.7389755249023438 7.339095711708069 1.0106887817382812 9.358389794826508 1.0113754272460938 11.782367527484894 C 1.012176513671875 14.54143363237381 3.2908096313476562 17.009230613708496 6.0418548583984375 16.989125311374664 C 8.797706604003906 16.969020009040833 10.988449096679688 14.537309467792511 10.988449096679688 11.782367527484894 C 10.987991333007812 9.358389794826508 9.261421203613281 7.339095711708069 6.970428466796875 6.886984169483185 Z M 9.999908447265625 1.9998491406440735 C 9.999908447265625 1.9998491406440735 8.388351440429688 5.205356061458588 8.388351440429688 5.205356061458588 C 8.388351440429688 5.205356061458588 6.9221343994140625 2.212243616580963 6.9221343994140625 2.212243616580963 C 6.9221343994140625 2.212243616580963 6.9999542236328125 1.9998491406440735 6.9999542236328125 1.9998491406440735 C 6.9999542236328125 1.9998491406440735 9.999908447265625 1.9998491406440735 9.999908447265625 1.9998491406440735 Z M 3.8683929443359375 5.554879009723663 C 3.8683929443359375 5.554879009723663 1.9999160766601562 1.9998491406440735 1.9999160766601562 1.9998491406440735 C 1.9999160766601562 1.9998491406440735 5.999969482421875 1.9998491406440735 5.999969482421875 1.9998491406440735 C 5.999969482421875 1.9998491406440735 7.236045837402344 4.2892760038375854 7.236045837402344 4.2892760038375854 C 7.236045837402344 4.2892760038375854 7.855743408203125 5.554879009723663 7.855743408203125 5.554879009723663 C 7.855743408203125 5.554879009723663 3.8683929443359375 5.554879009723663 3.8683929443359375 5.554879009723663 Z M 9.080833435058594 14.862602949142456 C 8.291648864746094 15.65186494588852 7.2045745849609375 15.999841332435608 5.999969482421875 15.999841332435608 C 4.796394348144531 15.999841332435608 3.7087478637695312 15.65186494588852 2.9195632934570312 14.862602949142456 C 2.1306076049804688 14.073340952396393 1.9999160766601562 13.203657746315002 1.9999160766601562 11.999917209148407 C 1.9999160766601562 10.79566115140915 2.2109451293945312 9.788849472999573 2.9999008178710938 8.99958747625351 C 3.7890853881835938 8.210841000080109 4.7953643798828125 7.999993085861206 5.999969482421875 7.999993085861206 C 7.203544616699219 7.999993085861206 8.210853576660156 8.210841000080109 8.999923706054688 8.99958747625351 C 9.779266357421875 9.780085623264313 9.987205505371094 10.814219892024994 9.999908447265625 11.999917209148407 C 9.999908447265625 11.999917209148407 9.999908447265625 11.999917209148407 9.999908447265625 11.999917209148407 C 9.999565124511719 13.203657746315002 9.869789123535156 14.073340952396393 9.080833435058594 14.862602949142456 Z"/></g></svg>