<svg version="1.1" xmlns="http://www.w3.org/2000/svg" xmlns:xlink="http://www.w3.org/1999/xlink" width="23" height="20"><defs/><g><path fill="rgb(255,255,255)" stroke="none" paint-order="stroke fill markers" fill-rule="evenodd" d=" M 14.999916076660156 18.999625980854034 C 14.999916076660156 18.999625980854034 7.999908447265625 18.999625980854034 7.999908447265625 18.999625980854034 C 7.999908447265625 18.999625980854034 7.999908447265625 17.99951606988907 7.999908447265625 17.99951606988907 C 7.999908447265625 17.99951606988907 14.999916076660156 17.99951606988907 14.999916076660156 17.99951606988907 C 14.999916076660156 17.99951606988907 14.999916076660156 18.999625980854034 14.999916076660156 18.999625980854034 C 14.999916076660156 18.999625980854034 14.999916076660156 18.999625980854034 14.999916076660156 18.999625980854034 C 14.999916076660156 18.999625980854034 14.999916076660156 18.999625980854034 14.999916076660156 18.999625980854034 Z M 20.99993896484375 15.9998117685318 C 20.99993896484375 15.9998117685318 2 15.9998117685318 2 15.9998117685318 C 1.1239547729492188 15.996718645095825 1.0028762817382812 14.875461399555206 0.9999008178710938 13.999591946601868 C 0.9999008178710938 13.999591946601868 0.9999008178710938 2.9999294877052307 0.9999008178710938 2.9999294877052307 C 1.0028762817382812 2.125091075897217 1.1239547729492188 1.0022872686386108 2 0.9997096657752991 C 2 0.9997096657752991 20.99993896484375 0.9997096657752991 20.99993896484375 0.9997096657752991 C 21.87598419189453 1.0022872686386108 21.99797821044922 2.124060034751892 21.999923706054688 2.9999294877052307 C 21.999923706054688 2.9999294877052307 21.999923706054688 13.999591946601868 21.999923706054688 13.999591946601868 C 21.99797821044922 14.874430358409882 21.429664611816406 15.944135546684265 20.552703857421875 15.94722867012024 C 20.552703857421875 15.94722867012024 20.553619384765625 15.94722867012024 20.553619384765625 15.94722867012024 C 20.553619384765625 15.94722867012024 20.99993896484375 15.9998117685318 20.99993896484375 15.9998117685318 Z M 2.9999847412109375 1.999819576740265 C 2.6318283081054688 2.0008506178855896 2 2.6308167576789856 2 2.9999294877052307 C 2 2.9999294877052307 2 13.999591946601868 2 13.999591946601868 C 2 14.367673635482788 2.3622055053710938 14.953820526599884 2.9999847412109375 14.999701857566833 C 2.9999847412109375 14.999701857566833 19.999954223632812 14.999701857566833 19.999954223632812 14.999701857566833 C 20.817291259765625 14.998670816421509 20.99993896484375 14.367673635482788 20.99993896484375 13.999591946601868 C 20.99993896484375 13.999591946601868 20.99993896484375 2.9999294877052307 20.99993896484375 2.9999294877052307 C 20.99993896484375 2.6318477988243103 20.862266540527344 2.0008506178855896 19.999954223632812 1.999819576740265 C 19.999954223632812 1.999819576740265 2 1.999819576740265 2 1.999819576740265 C 2 1.999819576740265 2 1.999819576740265 2 1.999819576740265 C 2 1.999819576740265 2.9999847412109375 1.999819576740265 2.9999847412109375 1.999819576740265 Z"/></g></svg>