<svg version="1.1" xmlns="http://www.w3.org/2000/svg" xmlns:xlink="http://www.w3.org/1999/xlink" width="14" height="17"><defs/><g><path fill="rgb(255,255,255)" stroke="none" paint-order="stroke fill markers" fill-rule="evenodd" d=" M 11.898399353027344 2.6706172823905945 C 11.898399353027344 2.6706172823905945 11.898399353027344 2.7948577404022217 11.898399353027344 2.7948577404022217 C 11.898399353027344 2.7948577404022217 11.898399353027344 2.7948577404022217 11.898399353027344 2.7948577404022217 C 11.898399353027344 2.7948577404022217 11.898399353027344 2.6706172823905945 11.898399353027344 2.6706172823905945 C 11.898399353027344 2.6706172823905945 11.644454956054688 2.6706172823905945 11.644454956054688 2.6706172823905945 C 11.644454956054688 2.6706172823905945 11.491104125976562 2.515445590019226 11.491104125976562 2.515445590019226 C 11.491104125976562 2.515445590019226 11.485267639160156 2.5087438225746155 11.485267639160156 2.5087438225746155 C 11.485267639160156 2.5087438225746155 10.805145263671875 1.8163996934890747 10.805145263671875 1.8163996934890747 C 10.805145263671875 1.8163996934890747 10.79736328125 1.808151364326477 10.79736328125 1.808151364326477 C 10.585418701171875 1.6101914644241333 10.292449951171875 1.0096099972724915 9.99993896484375 0.9998151063919067 C 9.99993896484375 0.9998151063919067 2.9999313354492188 0.9998151063919067 2.9999313354492188 0.9998151063919067 C 2.7205810546875 1.0085789561271667 2.8338775634765625 1.5983344912528992 2.6229629516601562 1.7797977328300476 C 2.6229629516601562 1.7797977328300476 2.6141510009765625 1.7849529385566711 2.6141510009765625 1.7849529385566711 C 2.6141510009765625 1.7849529385566711 1.9090805053710938 2.5025575757026672 1.9090805053710938 2.5025575757026672 C 1.9090805053710938 2.5025575757026672 1.8930587768554688 2.5190542340278625 1.8930587768554688 2.5190542340278625 C 1.8930587768554688 2.5190542340278625 1.7440567016601562 2.6706172823905945 1.7440567016601562 2.6706172823905945 C 1.7440567016601562 2.6706172823905945 1.4911422729492188 2.6706172823905945 1.4911422729492188 2.6706172823905945 C 1.2235794067382812 2.671648323535919 1.0072860717773438 2.8881669640541077 1.0068283081054688 3.154175579547882 C 1.0068283081054688 3.154175579547882 1.0068283081054688 3.6021629571914673 1.0068283081054688 3.6021629571914673 C 1.0068283081054688 3.8697181344032288 1.2240371704101562 4.085721254348755 1.4911422729492188 4.08675229549408 C 1.4911422729492188 4.08675229549408 1.8685684204101562 4.08675229549408 1.8685684204101562 4.08675229549408 C 1.8685684204101562 4.08675229549408 2.0990524291992188 5.996756017208099 2.0990524291992188 5.996756017208099 C 2.0990524291992188 5.996756017208099 2.0985946655273438 5.996756017208099 2.0985946655273438 5.996756017208099 C 2.0985946655273438 5.996756017208099 2.140594482421875 6.343701362609863 2.140594482421875 6.343701362609863 C 2.140594482421875 6.343701362609863 2.4530181884765625 8.938316404819489 2.4530181884765625 8.938316404819489 C 2.4530181884765625 8.938316404819489 2.550750732421875 9.747683703899384 2.550750732421875 9.747683703899384 C 2.550750732421875 9.747683703899384 2.610260009765625 10.244645535945892 2.610260009765625 10.244645535945892 C 2.610260009765625 10.244645535945892 2.654205322265625 10.609118580818176 2.654205322265625 10.609118580818176 C 2.654205322265625 10.609118580818176 3.2201156616210938 15.313243806362152 3.2201156616210938 15.313243806362152 C 3.26898193359375 15.664828836917877 3.562408447265625 15.925682246685028 3.9164886474609375 15.931352972984314 C 3.9164886474609375 15.931352972984314 9.4716796875 15.931352972984314 9.4716796875 15.931352972984314 C 9.827133178710938 15.925682246685028 10.120101928710938 15.664828836917877 10.16839599609375 15.314274847507477 C 10.16839599609375 15.314274847507477 10.838790893554688 9.747683703899384 10.838790893554688 9.747683703899384 C 10.838790893554688 9.747683703899384 11.519485473632812 4.08675229549408 11.519485473632812 4.08675229549408 C 11.519485473632812 4.08675229549408 11.898399353027344 4.08675229549408 11.898399353027344 4.08675229549408 C 12.165504455566406 4.085721254348755 12.381797790527344 3.8707491755485535 12.381797790527344 3.6021629571914673 C 12.381797790527344 3.6021629571914673 12.381797790527344 3.155206620693207 12.381797790527344 3.155206620693207 C 12.381340026855469 2.8866204023361206 12.165504455566406 2.671648323535919 11.898399353027344 2.6706172823905945 Z M 2.983795166015625 2.2927407026290894 C 2.983795166015625 2.2927407026290894 2.9843673706054688 2.2917096614837646 2.9843673706054688 2.2917096614837646 C 2.9843673706054688 2.2917096614837646 3.0214462280273438 2.254592180252075 3.0214462280273438 2.254592180252075 C 3.0576095581054688 2.2009780406951904 3.284088134765625 2.102513611316681 3.371063232421875 2.099420487880707 C 3.371063232421875 2.099420487880707 3.379302978515625 2.099420487880707 3.379302978515625 2.099420487880707 C 3.379302978515625 2.099420487880707 10.000968933105469 2.099420487880707 10.000968933105469 2.099420487880707 C 10.000968933105469 2.099420487880707 10.00726318359375 2.099420487880707 10.00726318359375 2.099420487880707 C 10.00726318359375 2.099420487880707 10.011611938476562 2.099420487880707 10.011611938476562 2.099420487880707 C 10.011611938476562 2.099420487880707 10.011611938476562 2.099420487880707 10.011611938476562 2.099420487880707 C 10.093208312988281 2.0973584055900574 10.330558776855469 2.198915958404541 10.36614990234375 2.2535611391067505 C 10.36614990234375 2.2535611391067505 10.371986389160156 2.2597473859786987 10.371986389160156 2.2597473859786987 C 10.371986389160156 2.2597473859786987 10.377365112304688 2.26438707113266 10.377365112304688 2.26438707113266 C 10.377365112304688 2.26438707113266 10.999923706054688 1.9999250173568726 10.999923706054688 1.9999250173568726 C 10.999923706054688 1.9999250173568726 2.9999313354492188 1.9999250173568726 2.9999313354492188 1.9999250173568726 C 2.9999313354492188 1.9999250173568726 2.983795166015625 2.2927407026290894 2.983795166015625 2.2927407026290894 Z M 3.216796875 10.098237693309784 C 3.216796875 10.098237693309784 3.165985107421875 9.673448741436005 3.165985107421875 9.673448741436005 C 3.165985107421875 9.673448741436005 2.9443130493164062 7.836648941040039 2.9443130493164062 7.836648941040039 C 2.9443130493164062 7.836648941040039 2.7978286743164062 6.616927266120911 2.7978286743164062 6.616927266120911 C 2.7978286743164062 6.616927266120911 6.035133361816406 6.616927266120911 6.035133361816406 6.616927266120911 C 5.290924072265625 6.8865445256233215 4.7587738037109375 7.597447395324707 4.7587738037109375 8.433106243610382 C 4.7587738037109375 9.227523446083069 5.2362213134765625 9.90697956085205 5.917945861816406 10.20701253414154 C 5.917945861816406 10.20701253414154 3.2299575805664062 10.20701253414154 3.2299575805664062 10.20701253414154 C 3.2299575805664062 10.20701253414154 3.216796875 10.098237693309784 3.216796875 10.098237693309784 Z M 6.694770812988281 7.119044303894043 C 7.42181396484375 7.120075345039368 8.009239196777344 7.707768797874451 8.010726928710938 8.434137284755707 C 8.009239196777344 9.16205233335495 7.42181396484375 9.749745786190033 6.694313049316406 9.750776827335358 C 5.9677276611328125 9.749745786190033 5.379844665527344 9.16205233335495 5.377899169921875 8.433106243610382 C 5.379844665527344 7.707768797874451 5.9672698974609375 7.120075345039368 6.694770812988281 7.119044303894043 Z M 9.553619384765625 15.239008843898773 C 9.553619384765625 15.239008843898773 9.6767578125 15.253443419933319 9.6767578125 15.253443419933319 C 9.6767578125 15.253443419933319 9.6767578125 15.253443419933319 9.6767578125 15.253443419933319 C 9.6767578125 15.253443419933319 9.6767578125 15.254474461078644 9.6767578125 15.254474461078644 C 9.6767578125 15.254474461078644 9.553619384765625 15.241070926189423 9.553619384765625 15.241070926189423 C 9.553619384765625 15.247772693634033 9.543891906738281 15.270971119403839 9.524322509765625 15.287983298301697 C 9.506813049316406 15.303448915481567 9.485298156738281 15.311181724071503 9.476486206054688 15.311181724071503 C 9.476486206054688 15.311181724071503 9.476486206054688 15.311181724071503 9.476486206054688 15.311181724071503 C 9.473052978515625 15.311181724071503 9.006706237792969 14.999807298183441 8.999954223632812 14.999807298183441 C 8.999954223632812 14.999807298183441 3.9999160766601562 14.999807298183441 3.9999160766601562 14.999807298183441 C 3.9930496215820312 15.00186938047409 3.88421630859375 15.305510997772217 3.8646469116210938 15.287983298301697 C 3.8446197509765625 15.270971119403839 3.8353500366210938 15.247772693634033 3.8359222412109375 15.242101967334747 C 3.8359222412109375 15.242101967334747 3.3046875 10.82666826248169 3.3046875 10.82666826248169 C 3.3046875 10.82666826248169 10.084396362304688 10.82666826248169 10.084396362304688 10.82666826248169 C 10.084396362304688 10.82666826248169 9.553619384765625 15.239008843898773 9.553619384765625 15.239008843898773 Z M 10.339828491210938 8.706847667694092 C 10.339828491210938 8.706847667694092 10.223098754882812 9.67241770029068 10.223098754882812 9.67241770029068 C 10.223098754882812 9.67241770029068 10.159126281738281 10.20701253414154 10.159126281738281 10.20701253414154 C 10.159126281738281 10.20701253414154 7.470680236816406 10.20701253414154 7.470680236816406 10.20701253414154 C 8.1533203125 9.90697956085205 8.63031005859375 9.227523446083069 8.63031005859375 8.433106243610382 C 8.63031005859375 7.597447395324707 8.097587585449219 6.8865445256233215 7.354408264160156 6.616927266120911 C 7.354408264160156 6.616927266120911 10.591712951660156 6.616927266120911 10.591712951660156 6.616927266120911 C 10.591712951660156 6.616927266120911 10.339828491210938 8.706847667694092 10.339828491210938 8.706847667694092 Z M 10.665985107421875 5.996756017208099 C 10.665985107421875 5.996756017208099 2.7230987548828125 5.996756017208099 2.7230987548828125 5.996756017208099 C 2.7230987548828125 5.996756017208099 1.9999465942382812 3.999629318714142 1.9999465942382812 3.999629318714142 C 1.9999465942382812 3.999629318714142 10.999923706054688 3.999629318714142 10.999923706054688 3.999629318714142 C 10.999923706054688 3.999629318714142 10.665985107421875 5.996756017208099 10.665985107421875 5.996756017208099 Z M 11.762672424316406 3.4665810465812683 C 11.762672424316406 3.4665810465812683 1.6259536743164062 3.4665810465812683 1.6259536743164062 3.4665810465812683 C 1.6259536743164062 3.4665810465812683 1.6259536743164062 3.289757490158081 1.6259536743164062 3.289757490158081 C 1.6259536743164062 3.289757490158081 11.762672424316406 3.2907885313034058 11.762672424316406 3.2907885313034058 C 11.762672424316406 3.2907885313034058 11.762672424316406 3.4665810465812683 11.762672424316406 3.4665810465812683 Z"/></g></svg>