<svg version="1.1" xmlns="http://www.w3.org/2000/svg" xmlns:xlink="http://www.w3.org/1999/xlink" width="18" height="15"><defs/><g><path fill="rgb(255,255,255)" stroke="none" paint-order="stroke fill markers" fill-rule="evenodd" d=" M 1.83294677734375 12.163979589939117 C 3.1200637817382812 12.986234903335571 4.647392272949219 13.464637994766235 6.291908264160156 13.464637994766235 C 11.642478942871094 13.464637994766235 14.569305419921875 9.048688769340515 14.569305419921875 5.2183709144592285 C 14.569305419921875 5.093614935874939 14.566329956054688 4.968343436717987 14.559463500976562 4.8435874581336975 C 15.129837036132812 4.4352951645851135 15.622047424316406 3.925445318222046 16.01171875 3.343422591686249 C 15.490211486816406 3.57592236995697 14.929679870605469 3.730063021183014 14.340766906738281 3.798627257347107 C 14.9423828125 3.442918062210083 15.401290893554688 2.87275230884552 15.620101928710938 2.1969048380851746 C 15.057510375976562 2.5289000868797302 14.434494018554688 2.769132673740387 13.772453308105469 2.9000748991966248 C 13.2431640625 2.337641954421997 12.485336303710938 1.986056923866272 11.649345397949219 1.986056923866272 C 10.041908264160156 1.986056923866272 8.741172790527344 3.2831066846847534 8.741172790527344 4.882767021656036 C 8.741172790527344 5.10908055305481 8.765548706054688 5.329723358154297 8.815330505371094 5.542633354663849 C 6.398338317871094 5.421486020088196 4.2529144287109375 4.269297540187836 2.8193130493164062 2.515496551990509 C 2.5692596435546875 2.9449251890182495 2.425750732421875 3.441371500492096 2.425750732421875 3.97235769033432 C 2.425750732421875 4.978138327598572 2.939361572265625 5.86483371257782 3.7196197509765625 6.384478449821472 C 3.2421722412109375 6.371074914932251 2.7939071655273438 6.240132689476013 2.4012603759765625 6.023098528385162 C 2.4012603759765625 6.023098528385162 2.4012603759765625 6.058153927326202 2.4012603759765625 6.058153927326202 C 2.4012603759765625 7.462431967258453 3.4052505493164062 8.634725749492645 4.735282897949219 8.900218844413757 C 4.492095947265625 8.968267560005188 4.234375 9.001776397228241 3.9686431884765625 9.001776397228241 C 3.78118896484375 9.001776397228241 3.598541259765625 8.984248697757721 3.421844482421875 8.950739860534668 C 3.7919464111328125 10.10344386100769 4.866203308105469 10.941164791584015 6.138671875 10.962816655635834 C 5.14349365234375 11.740221679210663 3.890594482421875 12.202643632888794 2.5263442993164062 12.202643632888794 C 2.2909393310546875 12.202643632888794 2.0614852905273438 12.191302180290222 1.83294677734375 12.163979589939117 Z"/></g></svg>